<?xml version="1.0" encoding="UTF-8" standalone="no"?>
<!DOCTYPE svg PUBLIC "-//W3C//DTD SVG 1.1//EN" "http://www.w3.org/Graphics/SVG/1.1/DTD/svg11.dtd">
<svg version="1.1" xmlns="http://www.w3.org/2000/svg" xmlns:xlink="http://www.w3.org/1999/xlink" preserveAspectRatio="xMidYMid meet" viewBox="0 0 640 640" width="150" height="150"><defs><path d="M436.4 0C436.4 0 444.34 52.11 406.21 102.3C365.49 155.9 319.2 147.13 319.2 147.13C319.2 147.13 310.51 104.98 344.65 55.69C383.04 0.27 418.05 11.14 436.4 0ZM428.19 153.9C510.32 153.9 542.62 217.91 542.62 217.91C542.62 217.91 479.44 253.3 479.44 339.16C479.44 436.03 558.15 469.41 558.15 469.41C558.15 469.41 503.13 639.06 428.81 639.06C394.67 639.06 368.13 613.86 332.17 613.86C295.52 613.86 259.14 640 235.45 640C167.59 640 81.85 479.07 81.85 349.72C81.85 222.45 154.42 155.68 222.49 155.68C266.74 155.68 301.08 183.63 324.09 183.63C343.83 183.63 380.49 153.9 428.19 153.9Z" id="azzW2mhdL"></path></defs><g><g><g><use xlink:href="#azzW2mhdL" opacity="1" fill="#333333" fill-opacity="1"></use><g><use xlink:href="#azzW2mhdL" opacity="1" fill-opacity="0" stroke="#000000" stroke-width="1" stroke-opacity="0"></use></g></g></g></g></svg>