<?xml version="1.0" encoding="UTF-8" standalone="no"?>
<!DOCTYPE svg PUBLIC "-//W3C//DTD SVG 1.1//EN" "http://www.w3.org/Graphics/SVG/1.1/DTD/svg11.dtd">
<svg version="1.1" xmlns="http://www.w3.org/2000/svg" xmlns:xlink="http://www.w3.org/1999/xlink" preserveAspectRatio="xMidYMid meet" viewBox="0 0 640 640" width="30" height="30"><defs><path d="M128.32 576C128.32 611.36 156.64 640 192 640C227.36 640 256 611.36 256 576C256 540.64 227.36 512 192 512C156.64 512 128.32 540.64 128.32 576Z" id="b33GjgKrOR"></path><path d="M465.6 352C489.6 352 510.56 338.72 521.6 319.04C533.04 298.27 624.56 132.13 636 111.36C638.56 106.88 640 101.6 640 96C640 78.24 625.6 64 608 64C576.46 64 418.75 64 134.88 64L104.48 0L0 0L0 64L64 64L179.04 306.72C153.12 353.76 138.72 379.89 135.84 385.12C130.88 394.4 128 404.8 128 416C128 451.36 156.64 480 192 480C217.6 480 345.6 480 576 480L576 416C353.76 416 230.29 416 205.6 416C201.12 416 197.6 412.48 197.6 408C197.6 406.56 197.92 405.28 198.56 404.16C200.47 400.68 210.02 383.3 227.2 352C370.24 352 449.71 352 465.6 352Z" id="a1Qyt6vI2S"></path><path d="M448.32 576C448.32 611.36 476.64 640 512 640C547.36 640 576 611.36 576 576C576 540.64 547.36 512 512 512C476.64 512 448.32 540.64 448.32 576Z" id="a1kll7A7Mo"></path></defs><g><g><g><use xlink:href="#b33GjgKrOR" opacity="1" fill="#b2b2b2" fill-opacity="1"></use><g><use xlink:href="#b33GjgKrOR" opacity="1" fill-opacity="0" stroke="#000000" stroke-width="1" stroke-opacity="0"></use></g></g><g><use xlink:href="#a1Qyt6vI2S" opacity="1" fill="#b2b2b2" fill-opacity="1"></use><g><use xlink:href="#a1Qyt6vI2S" opacity="1" fill-opacity="0" stroke="#000000" stroke-width="1" stroke-opacity="0"></use></g></g><g><use xlink:href="#a1kll7A7Mo" opacity="1" fill="#b2b2b2" fill-opacity="1"></use><g><use xlink:href="#a1kll7A7Mo" opacity="1" fill-opacity="0" stroke="#000000" stroke-width="1" stroke-opacity="0"></use></g></g></g></g></svg>