<?xml version="1.0" encoding="UTF-8" standalone="no"?>
<!DOCTYPE svg PUBLIC "-//W3C//DTD SVG 1.1//EN" "http://www.w3.org/Graphics/SVG/1.1/DTD/svg11.dtd">
<svg version="1.1" xmlns="http://www.w3.org/2000/svg" xmlns:xlink="http://www.w3.org/1999/xlink" preserveAspectRatio="xMidYMid meet" viewBox="0 0 640 640" width="150" height="150"><defs><path d="M465.72 375.47C466.2 375.06 466.67 374.63 467.15 374.22C444.91 369.06 428.32 343.71 427.27 313.28C426.9 303.12 428.32 292.99 431.42 283.72C437.26 266.16 448.57 252.99 462.29 247.77C462.28 249.56 462.19 258.47 462.04 274.51C468.57 257.05 472.2 247.35 472.93 245.41C472.97 245.4 473.02 245.4 473.06 245.41C499.59 243.74 522.09 271.4 523.33 307.2C523.33 307.2 523.33 307.2 523.33 307.2C523.37 308.44 523.33 309.66 523.33 310.84C527.12 305.01 530.56 298.76 532.84 291.91C537.45 278.04 537.55 262.33 537.17 243.24C536.44 205.41 535.24 167.29 533.66 129.28C510.18 125.76 492.08 99.73 490.96 67.89C490.9 65.9 490.92 63.94 490.96 62C490.96 61.51 490.96 61.02 491.02 60.54C491.11 58.66 491.24 56.79 491.46 54.96C491.46 54.65 491.54 54.36 491.58 54.05C491.87 51.71 492.21 49.89 492.28 49.43C492.39 48.86 492.49 48.29 492.61 47.72C492.94 46.07 493.28 44.44 493.75 42.83C493.89 42.29 494.06 41.78 494.2 41.25C494.55 40.07 494.92 38.9 495.31 37.75C495.52 37.14 495.72 36.54 495.94 35.93C496 35.77 496.04 35.62 496.11 35.46C496.11 35.46 496.11 35.46 496.11 35.46C506.58 7.55 530.32 -6.29 552.56 2.56C552.53 4.88 552.43 16.48 552.23 37.36C558.7 20.11 562.3 10.53 563.02 8.61C581.17 22.64 590.46 50.97 585.93 78.53C585.94 78.53 585.98 78.53 585.98 78.53C585.91 79 585.8 79.44 585.72 79.9C585.57 80.75 585.41 81.6 585.24 82.44C585.01 83.52 584.75 84.59 584.49 85.65C584.29 86.44 584.09 87.25 583.87 88.04C583.54 89.18 583.19 90.3 582.8 91.42C582.59 92.07 582.39 92.74 582.13 93.38C581.21 95.89 580.31 97.8 580.11 98.3C579.86 98.85 579.57 99.38 579.31 99.93C578.8 101.01 578.28 102.07 577.72 103.11C577.38 103.74 577.01 104.35 576.64 104.98C576.12 105.89 575.58 106.8 575.02 107.63C574.62 108.24 574.22 108.84 573.8 109.45C573.21 110.28 572.61 111.09 571.98 111.89C571.57 112.43 571.15 112.97 570.72 113.48C570.01 114.32 569.27 115.13 568.52 115.92C568.14 116.32 567.78 116.74 567.39 117.12C565.68 118.83 564.22 120.01 563.87 120.33C563.64 120.52 563.39 120.67 563.19 120.85C562.18 121.66 561.17 122.42 560.08 123.13C559.63 123.43 559.16 123.69 558.7 123.97C557.83 124.5 556.95 125.01 556.05 125.47C555.53 125.74 555 125.98 554.47 126.23C553.59 126.64 552.69 127.01 551.77 127.35C551.24 127.55 550.7 127.75 550.16 127.92C549.17 128.24 548.17 128.5 547.16 128.73C547.09 128.73 547.03 128.73 546.96 128.78C547.96 152.83 548.56 172.1 548.73 176.91C560.36 144.71 589.12 131.32 612.98 147.01C613.82 147.56 614.64 148.14 615.46 148.76C614.89 150.85 612.06 161.33 606.96 180.18C617.45 166.59 623.27 159.04 624.44 157.53C633.8 169.1 639.37 185.22 639.94 202.33C640.16 208.34 639.75 214.35 638.72 220.2C632.67 255.08 606.81 276.74 580.97 268.57C568.05 264.49 556.96 253.38 550.32 237.88C550.32 239.5 550.41 241.14 550.44 242.77C550.76 259.61 551.15 280.57 544.93 299.29C540.72 311.98 533.93 322.28 527.23 331.52C522.87 337.53 518.35 343.34 513.71 348.97C509.15 357.23 503.2 363.91 496.35 368.45C488.73 376.37 480.85 383.79 472.69 390.7C469.72 393.29 468.07 394.72 467.74 395.01C463.16 398.84 458.47 402.77 453.87 406.84C454.68 406.73 455.48 406.61 456.3 406.56C477.21 405.24 496.35 422.32 503.64 448.79C501.64 450.99 491.62 462 473.6 481.8C493.41 475.6 504.42 472.15 506.62 471.46C506.59 507.31 485.03 536.34 458.47 536.3C451.27 536.29 444.17 534.1 437.69 529.9C438.43 531.15 439.18 532.4 439.92 533.65C441.39 536.13 442.86 538.59 444.3 541.04C463.84 574.45 469.29 606.17 459.6 630.36C458.43 629.5 449.01 622.63 447.84 621.77C457.27 598.23 443.12 568.11 433.8 552.23C432.39 549.83 430.95 547.41 429.49 544.95C417 524.03 402.85 500.27 403.21 471.16C403.71 427.32 435.31 400.88 460.68 379.67C461.69 378.83 465.21 375.89 465.72 375.47Z" id="aaNxTVgwI"></path><path d="M614.13 620.9C614.13 631.45 476.69 640 307.14 640C137.6 640 0.15 631.45 0.15 620.9C0.15 610.35 137.6 601.8 307.14 601.8C476.69 601.8 614.13 610.35 614.13 620.9Z" id="b47SwTMZWJ"></path><path d="M555.15 613.78C557.17 608.77 554.88 602.63 552.27 598.15C549.65 593.68 546.46 589.06 546.53 583.33C546.63 575.15 553.06 570.32 558.21 565.98C562.02 562.76 565.54 558.94 568.69 554.6C570.01 552.93 571.11 550.96 571.92 548.78C572.98 545.58 572.95 541.94 572.88 538.43C572.66 526.75 572.23 515.08 571.6 503.43" id="cP33XYo9W"></path><path d="M576.66 492.35C576.52 492.73 575.82 494.61 574.55 498.01C574.58 493.91 574.6 491.63 574.61 491.17C569.62 489.15 564.36 492.98 562.86 499.71C562.55 501.11 562.42 502.56 562.48 504.01C562.72 511.05 567.15 516.48 572.36 516.15C577.57 515.81 581.59 509.84 581.35 502.81C581.35 502.81 581.35 502.81 581.35 502.81C581.23 498.47 579.45 494.53 576.66 492.35Z" id="c1GyxfXqLx"></path><path d="M551.8 594.71C547.17 591.49 545.35 583.82 547.73 577.56C550.12 571.31 555.81 568.85 560.44 572.07C562.53 573.52 564.14 575.97 564.96 578.94C564.57 579.37 562.6 581.54 559.06 585.43C562.96 584.2 565.12 583.53 565.56 583.39C565.56 585.42 565.2 587.42 564.51 589.22C562.13 595.47 556.44 597.93 551.8 594.71Z" id="a6Pd4W3GJ"></path><path d="M549.96 552.29C549.96 552.27 549.96 552.26 549.96 552.24C549.89 550.24 550.17 548.25 550.78 546.42C551.92 542.97 554.14 540.38 556.84 539.35C556.84 539.7 556.82 541.46 556.8 544.61L558.94 538.88C558.94 538.88 558.94 538.88 558.94 538.88C564.16 538.56 568.59 544 568.83 551.05C569.08 558.09 565.04 564.07 559.82 564.4C554.64 564.74 550.21 559.32 549.96 552.29Z" id="f4OMm94o9C"></path><path d="M572.92 531.61C572.68 524.58 576.7 518.61 581.91 518.27C583.68 518.16 585.44 518.72 586.98 519.89C586.87 520.31 586.31 522.37 585.31 526.08C587.37 523.4 588.52 521.92 588.75 521.62C590.59 523.9 591.69 527.07 591.81 530.43C591.85 531.61 591.77 532.8 591.56 533.95C590.6 539.49 587.02 543.49 582.8 543.74C577.59 544.07 573.17 538.64 572.92 531.61Z" id="e2lUcnK2LZ"></path><path d="M573.61 507.61C571.42 507.79 569.01 507.08 567.63 504.78C566.88 503.54 566.51 501.97 565.87 500.63C565.28 499.37 564.46 498.33 563.49 497.6C561.25 503.94 563.23 511.55 567.93 514.58C572.63 517.62 578.27 514.93 580.52 508.59C580.8 507.79 581.02 506.94 581.18 506.08C580.82 506.1 580.46 506.13 580.11 506.18C577.92 506.5 575.8 507.42 573.61 507.61Z" id="b7LxJIjgC"></path><path d="M572.9 531.67C572.82 529.56 573.13 527.46 573.81 525.55C574.56 526.23 575.2 527.11 575.71 528.12C576.38 529.5 576.78 531.08 577.58 532.35C579.05 534.68 581.57 535.45 583.85 535.3C586.14 535.16 588.34 534.29 590.59 534.01C590.9 534.01 591.23 533.94 591.54 533.93C590.58 539.47 587.01 543.47 582.8 543.74C577.6 544.1 573.17 538.69 572.9 531.67Z" id="f2jdKYEjSX"></path><path d="M549.96 552.29C549.96 552.27 549.96 552.26 549.96 552.24C549.89 550.24 550.17 548.25 550.78 546.42C551.56 547.12 552.25 548 552.8 549.02C553.53 550.42 553.99 552.03 554.82 553.32C556.42 555.72 559.1 556.57 561.52 556.48C563.94 556.4 566.12 555.64 568.45 555.4C567.27 560.55 563.83 564.14 559.84 564.4C554.64 564.74 550.21 559.32 549.96 552.29Z" id="a5ZsQ2qR0"></path><path d="M552.01 595.63C547.25 592.74 545.13 585.19 547.27 578.76C548.04 579.46 548.74 580.3 549.34 581.26C550.24 582.74 550.83 584.42 551.88 585.81C553.81 588.36 556.93 589.45 559.71 589.52C561.31 589.55 562.92 589.45 564.51 589.22C562.37 595.65 556.78 598.52 552.01 595.63Z" id="b27KO4rCgM"></path><path d="M550.6 605.53C550.6 605.53 562.06 600.78 562.65 604.25C562.65 604.25 573.87 621.54 565.44 621.59C565.44 621.59 545.85 619.77 543.61 617.95C541.36 616.13 540.89 608 540.89 608C542.83 607.51 548.35 607.69 550.6 605.53Z" id="a1nQFlBtPD"></path><path d="M543.75 616.74C542.05 615.34 541.36 610.29 541.14 607.97C541.11 607.97 540.91 607.97 540.89 607.97C540.89 607.97 541.36 616.09 543.59 617.97C543.59 617.97 556.98 621.68 565.42 621.61C567.85 621.61 568.69 620.41 568.64 618.68C568.33 619.71 567.4 620.36 565.58 620.38C557.16 620.47 546 618.56 543.75 616.74Z" id="l1lLvzffuK"></path><path d="M131.18 585.72C126.28 573.49 131.85 558.52 138.21 547.63C144.58 536.73 152.37 525.4 152.2 511.51C151.96 491.55 136.27 479.77 123.73 469.19C114.43 461.34 105.85 452.04 98.17 441.46C95.09 437.21 92.1 432.68 90.31 427.26C87.72 419.46 87.79 410.59 87.96 402.04C88.5 373.54 89.54 345.1 91.08 316.71" id="c15edt9FcX"></path><path d="M78.76 289.68C79.1 290.6 80.82 295.2 83.92 303.46C83.83 293.46 83.78 287.9 83.76 286.78C95.98 281.92 108.81 291.35 112.41 307.84C116.01 324.33 109.02 341.64 96.8 346.49C84.58 351.35 71.76 341.93 68.16 325.44C67.43 322.11 67.13 318.64 67.25 315.18C67.62 304.57 71.96 294.98 78.76 289.68Z" id="a1uQHZkBhY"></path><path d="M139.4 539.24C146.74 534.16 151.51 524.16 151.9 513.04C152.06 508.73 151.55 504.43 150.4 500.41C145.82 484.37 132.47 476.38 120.58 482.56C114.42 485.77 109.57 492.39 107.27 500.75C108.23 501.8 113.03 507.07 121.67 516.56C112.16 513.57 106.88 511.91 105.82 511.58C105.82 516.52 106.69 521.38 108.37 525.77C114.18 541.05 128.07 547.09 139.4 539.24Z" id="f3krHnJyEK"></path><path d="M143.85 435.69C144.34 421.23 137.38 408.23 127.07 404.31C127.07 405.16 127.12 409.43 127.19 417.12L122 403.18C121.96 403.18 121.94 403.18 121.94 403.18C109.21 402.38 98.42 415.65 97.82 432.82C97.23 449.99 107.06 464.56 119.79 465.37C132.48 466.14 143.26 452.86 143.85 435.69Z" id="a4ERMwTAnC"></path><path d="M87.93 385.51C88.55 368.34 78.74 353.75 66.02 352.91C61.68 352.62 57.37 354 53.58 356.87C53.85 357.88 55.2 362.9 57.63 371.94C52.62 365.41 49.84 361.78 49.28 361.06C44.77 366.59 42.08 374.32 41.8 382.54C41.69 385.42 41.89 388.31 42.38 391.11C44.74 404.66 53.47 414.45 63.78 415.09C76.5 415.92 87.31 402.68 87.93 385.51Z" id="a4u8pslQF"></path><path d="M86.18 326.91C91.52 327.36 97.39 325.64 100.77 320.04C102.59 317.02 103.5 313.2 105.03 309.9C106.49 306.84 108.49 304.3 110.84 302.53C116.56 317.89 111.97 336.6 100.59 344.31C89.21 352.03 75.35 345.83 69.63 330.47C68.77 328.16 68.12 325.71 67.71 323.18C68.61 323.24 69.48 323.32 70.35 323.45C75.67 324.24 80.85 326.47 86.18 326.91Z" id="bx8VIh4JB"></path><path d="M87.89 385.41C88.06 380.34 87.32 375.29 85.71 370.7C83.88 372.36 82.31 374.49 81.08 376.96C79.43 380.3 78.44 384.17 76.51 387.24C72.91 392.94 66.78 394.8 61.21 394.47C55.65 394.13 50.28 391.98 44.74 391.3C43.97 391.21 43.19 391.14 42.41 391.11C44.76 404.65 53.48 414.43 63.78 415.09C76.51 415.88 87.3 402.59 87.89 385.41Z" id="c52g8Lw8iS"></path><path d="M143.87 435.73C144.04 430.86 143.35 426 141.87 421.54C139.97 423.25 138.32 425.4 137 427.91C135.21 431.32 134.09 435.25 131.99 438.4C128.1 444.25 121.57 446.31 115.67 446.12C109.96 445.96 104.46 444.06 98.79 443.47C101.67 456 110.05 464.75 119.75 465.36C132.47 466.16 143.27 452.9 143.87 435.73Z" id="aFNgffdfl"></path><path d="M139.4 539.24C146.74 534.16 151.51 524.16 151.9 513.04C152.06 508.73 151.55 504.43 150.4 500.41C148.5 502.09 146.8 504.14 145.34 506.5C143.15 510.13 141.7 514.19 139.17 517.56C134.45 523.8 126.84 526.38 120.07 526.65C116.16 526.67 112.25 526.37 108.37 525.77C114.18 541.05 128.07 547.09 139.4 539.24Z" id="a4vZGP6Ypu"></path><path d="M201.82 628.45L199.79 628.18L121.61 617.53L121.61 483.83L217.32 462L286.73 472.91L286.75 473.51L286.76 473.8L290.78 603.89L290.78 603.89L201.82 628.45Z" id="b1jFPgeSRG"></path><path d="M201.82 628.45L199.79 628.18L199.79 491.11L286.75 473.51L290.78 603.89L290.78 603.89L201.82 628.45Z" id="cpf5T6Zx7"></path><path d="M286.73 473.82L199.79 491.11L121.61 483.83L217.32 462L286.73 472.91L286.75 473.51L286.76 473.8L286.76 473.8L286.73 473.82Z" id="h17vbPqIPj"></path><path d="M299.54 633.91L297.52 633.63L219.34 622.99L219.34 489.29L315.04 467.46L384.46 478.37L384.48 478.96L384.48 479.25L388.5 609.35L388.5 609.35L299.54 633.91Z" id="bfuZBwUjF"></path><path d="M299.54 633.91L297.52 633.63L297.52 496.56L384.48 478.96L388.5 609.35L388.5 609.35L299.54 633.91Z" id="b1drrGaynt"></path><path d="M384.46 479.28L297.52 496.56L219.34 489.29L315.04 467.46L384.46 478.37L384.48 478.96L384.48 479.25L384.48 479.25L384.46 479.28Z" id="a5VFfHFAM"></path><path d="M238.21 502.93L236.19 502.66L158.01 492.02L158.01 358.31L253.71 336.48L323.13 347.4L323.15 347.99L323.15 348.28L327.17 478.37L327.17 478.37L238.21 502.93Z" id="d71i4oLMcz"></path><path d="M238.21 502.93L236.19 502.66L236.19 365.59L323.15 347.99L327.17 478.37L327.17 478.37L238.21 502.93Z" id="barMUwvVh"></path><path d="M323.13 348.31L236.19 365.59L158.01 358.31L253.71 336.48L323.13 347.4L323.15 347.99L323.15 348.28L323.15 348.28L323.13 348.31Z" id="e4GogC9rS1"></path><path d="M331.29 496.8L330.23 496.65L289.43 491.1L289.43 421.32L339.38 409.92L375.61 415.62L375.62 415.93L375.62 416.08L377.72 483.97L377.72 483.97L331.29 496.8Z" id="b2CFZelwOI"></path><path d="M331.29 496.8L330.23 496.65L330.23 425.12L375.62 415.93L377.72 483.97L377.72 483.97L331.29 496.8Z" id="a18IcMu8hc"></path><path d="M375.61 416.09L330.23 425.12L289.43 421.32L339.38 409.92L375.61 415.62L375.62 415.93L375.62 416.08L375.62 416.08L375.61 416.09Z" id="cACwqGyzB"></path><path d="M206.61 361.27L205.55 361.13L164.75 355.57L164.75 285.79L214.69 274.4L250.93 280.1L250.94 280.41L250.94 280.55L253.04 348.45L253.04 348.45L206.61 361.27Z" id="g1rFskbHrn"></path><path d="M206.61 361.27L205.55 361.13L205.55 289.59L250.94 280.41L253.04 348.45L253.04 348.45L206.61 361.27Z" id="aptg1abq2"></path><path d="M250.93 280.57L205.55 289.59L164.75 285.79L214.69 274.4L250.93 280.1L250.94 280.41L250.94 280.55L250.94 280.55L250.93 280.57Z" id="a2W5Yhknb3"></path><path d="M288.16 358.54L287.1 358.4L246.3 352.84L246.3 283.06L296.24 271.67L332.48 277.37L332.49 277.68L332.49 277.82L334.58 345.72L334.58 345.72L288.16 358.54Z" id="gjdhs0cgV"></path><path d="M288.16 358.54L287.1 358.4L287.1 286.87L332.49 277.68L334.58 345.72L334.58 345.72L288.16 358.54Z" id="g33shHULzH"></path><path d="M332.48 277.84L287.1 286.87L246.3 283.06L296.24 271.67L332.48 277.37L332.49 277.68L332.49 277.82L332.49 277.82L332.48 277.84Z" id="akb5UBoL"></path><path d="M312.42 288.5L311.36 288.37L270.56 282.81L270.56 213.03L320.51 201.63L356.74 207.33L356.75 207.64L356.75 207.79L358.85 275.69L358.85 275.69L312.42 288.5Z" id="cOcE29aRw"></path><path d="M312.42 288.5L311.36 288.37L311.36 216.83L356.75 207.64L358.85 275.69L358.85 275.69L312.42 288.5Z" id="d56NSvvZGQ"></path><path d="M356.74 207.81L311.36 216.83L270.56 213.03L320.51 201.63L356.74 207.33L356.75 207.64L356.75 207.79L356.75 207.79L356.74 207.81Z" id="cWMFP1JuR"></path><path d="M385.39 149.4C383.53 158 386.74 167.23 391.16 173.96C398.36 184.76 408.46 191.23 419.21 191.92C420.78 192.1 422.35 191.87 423.85 191.23C425.18 190.5 426.39 189.39 427.38 187.98C430.69 183.48 432.48 177.25 433.18 170.96C433.89 164.68 433.62 158.28 433.35 151.94C433.35 150.63 433.17 149.33 432.82 148.1C432.37 146.94 431.75 145.91 430.99 145.07C428.6 142.11 425.97 139.52 423.14 137.37C421.93 136.46 420.63 135.55 419.85 133.98C419.32 132.72 418.98 131.34 418.84 129.91C418.75 129.32 418.05 124.54 417.97 123.95C417.81 122.23 417.38 120.57 416.69 119.11C415.16 116.32 412.23 115.94 409.66 115.8C408.72 115.75 401.17 115.35 400.23 115.3C397.3 115.15 393.44 114.01 390.58 114.8C387.88 115.51 388.79 118.84 389.28 121.86C389.98 125.51 390.38 129.26 390.47 133.03C389.98 138.94 386.63 143.71 385.39 149.4Z" id="asKsL77al"></path><path d="M385.39 149.4C383.53 158 386.74 167.23 391.16 173.96C398.36 184.76 408.46 191.23 419.21 191.92C420.78 192.1 422.35 191.87 423.85 191.23C425.18 190.5 426.39 189.39 427.38 187.98C430.69 183.48 432.48 177.25 433.18 170.96C433.89 164.68 433.62 158.28 433.35 151.94C433.35 150.63 433.17 149.33 432.82 148.1C432.37 146.94 431.75 145.91 430.99 145.07C428.6 142.11 425.97 139.52 423.14 137.37C421.93 136.46 420.63 135.55 419.85 133.98C419.32 132.72 418.98 131.34 418.84 129.91C418.75 129.32 418.05 124.54 417.97 123.95C417.81 122.23 417.38 120.57 416.69 119.11C415.16 116.32 412.23 115.94 409.66 115.8C408.72 115.75 401.17 115.35 400.23 115.3C397.3 115.15 393.44 114.01 390.58 114.8C387.88 115.51 388.79 118.84 389.28 121.86C389.98 125.51 390.38 129.26 390.47 133.03C389.98 138.94 386.63 143.71 385.39 149.4Z" id="c64XZpwPuS"></path><path d="M446.39 458.54C445.34 474.08 444.28 489.68 442.23 505.01C441.56 510.3 440.69 515.55 439.71 520.77C436.97 535.24 433 549.38 431.72 564.22C431.68 564.64 431.65 565.13 431.61 565.52C431.35 568.79 431.12 572.1 430.27 575.16C429.59 577.42 428.64 579.49 427.95 581.72C426.6 586.2 426.38 591.15 426.22 596C421.36 592.29 416.04 589.83 410.52 588.72C407.82 588.18 404.89 587.81 403.11 585.08C401.08 582.12 401.32 577.58 401.66 573.59C403.25 555.04 404.51 540.21 404.82 536.5C405.18 531.18 405.85 525.91 406.85 520.75C407.21 519.03 407.65 517.34 408.09 515.65C408.71 513.32 409.33 510.99 409.79 508.6C410.44 504.75 410.88 500.85 411.13 496.93C412.21 484.48 413.52 472.07 414.66 459.64C414.67 459.57 414.72 459.05 414.72 458.98C416.44 440.13 417.75 421.2 417.37 402.21C417.32 399.4 417.23 396.59 417.1 393.77C416.91 389.69 416.63 387.53 419.12 384.97C421.89 382.15 425.54 380.18 428.7 378.33C430.41 377.33 449.18 368.32 449.6 370.31C450.47 374.52 450.92 378.87 450.94 383.24C450.98 388.61 450.8 393.97 450.39 399.31C450.39 399.31 446.79 452.62 446.39 458.54Z" id="aIO0uzkPE"></path><path d="M439.71 520.77C436.97 535.24 433 549.38 431.72 564.22C431.68 564.64 431.65 565.13 431.61 565.52C423.24 549.38 416.19 532.03 408.03 515.72C408.64 513.39 409.26 511.06 409.72 508.67C410.39 504.8 410.86 500.88 411.13 496.93C412.21 484.48 413.52 472.07 414.66 459.64C414.67 459.57 414.72 459.05 414.72 458.98C415.2 461.62 415.88 464.18 416.75 466.63C422.23 481.67 435.27 489.28 441.64 503.68C441.85 504.12 442.05 504.57 442.23 505.01C441.2 512.04 440.36 517.29 439.71 520.77Z" id="d1edXIwjn"></path><path d="M377.44 408.68C377.74 411.14 380.09 430.78 380.39 433.24C382 446.7 383.68 460.43 388.4 472.48C391.93 481.5 397.01 489.2 401.62 497.28C412.93 517.16 421.42 539.69 432.15 560.16C435.27 566.11 439.72 572.55 445.04 571.3C448.53 570.49 451.06 566.56 453.8 563.54C457.04 559.98 460.93 557.37 463.48 552.89C466.03 548.42 466.53 540.99 463.07 537.81C461.9 536.73 460.46 536.32 459.13 535.63C453.78 532.9 450.32 525.84 448.12 518.71C445.92 511.58 444.58 503.93 441.65 497.3C435.27 482.9 422.23 475.3 416.75 460.24C413.67 451.82 413.38 442.05 413.15 432.71C413.09 430.32 412.61 411.17 412.55 408.78C412.48 406.16 412.43 403.44 413.22 401.05C415.32 394.68 421.65 394.08 426.79 393.27C432.61 392.36 438.25 389.95 443.42 386.2C446.37 384.04 449.26 381.3 450.83 377.29C452.27 373.65 452.47 369.37 452.64 365.24C452.81 360.9 454.24 326.2 454.41 321.86C454.57 318.14 454.7 314.27 453.74 310.78C451.29 301.99 443.07 299.12 436.12 299.54C423.2 300.32 411.27 307.82 399.06 312.9C396.03 314.15 392.99 315.28 389.87 316.13C387.17 316.86 383.8 316.56 381.22 317.74C376.58 319.85 376.69 333.55 376.04 339.23C374.69 350.3 374.11 361.52 374.31 372.75C374.58 384.81 376.01 396.77 377.44 408.68Z" id="aOwygRs2Y"></path><path d="M445.09 579.11C446.74 591.03 447.6 603.11 447.65 615.23C447.58 616.36 447.75 617.5 448.13 618.51C448.46 619.1 448.89 619.58 449.39 619.87C452.69 621.99 456.51 619.03 459.26 615.79C464.35 609.78 468.66 601.7 468.94 592.58C469.02 590.23 468.82 587.86 469.13 585.54C469.57 582.1 471.06 579.11 472.37 576.1C474.61 570.99 476.41 565.55 477.76 559.9C478.26 557.77 478.6 555.09 477.36 553.61C476.92 553.14 476.43 552.8 475.89 552.58C474.4 551.84 462.49 545.87 461 545.12C459.7 544.48 456.5 555.6 455.99 556.82C454.74 559.8 453.5 561.48 451 562.17C448.5 562.86 445.42 561.86 443.03 563.58C438.99 566.48 441 570.04 443.29 573.14C444.43 574.69 444.8 576.97 445.09 579.11Z" id="a1LikkeTpu"></path><path d="M419.19 578.07C418.5 577.48 417.71 577.12 416.9 577.02C414.07 576.37 410.71 575.94 408.75 578.79C406.92 581.45 407.24 585.79 405.71 588.79C405.22 589.7 404.56 590.52 404.14 591.52C403.62 593.05 403.39 594.73 403.47 596.41C403.39 601.04 403.31 605.69 403.55 610.31C403.75 614.19 404.22 618.25 406.02 621.29C408.91 626.17 414.11 626.87 418.72 627.18C419.1 627.2 422.09 627.41 422.46 627.44C423.49 627.6 424.53 627.47 425.52 627.06C426.76 626.29 427.71 624.87 428.16 623.14C430.11 616.61 427.03 609.58 425.13 603.03C422.94 595.49 423.33 587.13 420.32 580.01C420.04 579.26 419.66 578.6 419.19 578.07Z" id="c7Exy1G3E"></path><path d="M389.6 97.75C390.15 96.45 391.57 96.84 392.65 97.17C396.99 98.64 401.56 97.3 406.02 97.65C410.49 98 415.52 101.01 416.42 106.92C419.66 103.82 422.45 99.95 424.66 95.49C425.9 92.99 426.98 90.13 426.81 87.13C426.57 82.8 423.88 79.56 421.42 76.81C420.68 75.99 414.75 69.44 414 68.63C413.03 67.42 411.9 66.45 410.67 65.77C408.96 64.98 407.09 65.36 405.28 65.36C399.89 65.36 394.11 62.04 389.3 65.36C387.28 66.75 385.78 69.14 384.32 71.47C383.66 72.53 378.36 81 377.7 82.06C377.2 82.74 376.83 83.57 376.63 84.49C376.44 85.78 376.94 87.05 377.11 88.35C377.42 90.72 376.67 93.25 377.25 95.52C378.21 99.29 381.61 99.82 383.68 101.99C384.45 102.79 385.66 105.53 386.59 105.49C388.21 105.45 389.34 101.44 389.39 99.7C389.34 99.03 389.41 98.37 389.6 97.75Z" id="d6q84HmPQ"></path><path d="M400.63 73.62C388.91 73.62 379.4 86.45 379.4 102.27C379.4 118.09 388.91 130.92 400.63 130.92C412.36 130.92 421.86 118.09 421.86 102.27C421.86 86.45 412.36 73.62 400.63 73.62Z" id="e4kBKObhD"></path><path d="M395.63 155.67C395 155.83 394.35 155.72 393.78 155.35C393.45 155.02 393.19 154.58 393.02 154.08C391.73 150.94 390.69 147.63 389.92 144.2C389.59 142.68 389.12 140.89 387.98 140.5C387.07 140.18 386.13 140.98 385.52 141.95C384.97 143 384.38 144 383.75 144.95C381.05 148.17 376.34 145.23 373.51 148.19C373.05 148.67 372.66 149.29 372.16 149.73C371.68 150.13 371.16 150.44 370.61 150.64C365.13 153.05 359.75 155.88 354.51 159.13C356.4 174.44 358.33 190.05 362.75 204.38C364.85 211.2 367.23 217.88 368.92 224.92C372.65 240.5 372.81 257.17 372.86 273.55C372.86 284.75 372.86 296.2 370.16 306.8C369.56 309.2 368.82 311.59 368.65 314.08C368.48 316.57 369.03 319.39 370.55 320.88C371.42 321.66 372.43 322.14 373.48 322.27C378.14 323.18 382.83 321.53 387.41 320.09C399.7 316.25 412.23 314.05 424.73 311.91C426.83 311.54 443.6 308.63 445.69 308.27C447.2 308.12 448.67 307.61 450.03 306.75C453.87 303.92 454.23 296.13 451.85 291.19C450.71 288.81 449.1 286.87 448.13 284.35C447.17 281.84 447.1 278.32 448.75 276.58C452.12 273.03 451.11 266.45 451.27 260.71C451.94 236.58 451.1 217.32 451.08 212.5C450.91 209.17 450.87 205.83 450.96 202.49C451.2 196.84 452.24 191.3 453.28 185.8C453.91 182.41 459.01 155.34 459.64 151.96C457.98 148.41 454.79 146.16 451.78 145.14C448.77 144.12 445.62 143.82 442.65 142.57C436.58 140.03 431.14 133.57 424.78 134.17C424.3 134.18 423.82 134.34 423.39 134.62C421.96 135.72 422.19 138.51 422.1 140.73C421.9 145.65 419.21 149.75 416.26 152.63C413.31 155.52 409.93 157.61 407.21 160.89C406.26 161.86 405.67 163.35 405.61 164.97C404.13 159.27 400.1 155.51 395.63 155.67Z" id="aN4oMED34"></path><path d="M317.03 200.17C315.55 200.96 313.96 201.59 312.75 202.97C312.15 203.67 311.64 204.51 311.26 205.45C309.04 210.76 310.43 217.49 314.37 220.48C315.71 221.5 317.25 221.99 318.79 221.89C320.74 221.75 322.58 220.69 324.37 219.64C325.87 218.76 337.85 211.72 339.34 210.84C341.88 209.36 344.61 207.63 345.81 204.27C345.95 203.95 346 203.58 345.96 203.22C345.85 202.83 345.62 202.5 345.34 202.31C341.97 199.35 339.01 195.59 336.63 191.22C336.01 190.09 335.28 187.43 334.39 186.75C331.22 184.38 324.03 194.85 321.49 197.06C320.08 198.3 318.59 199.34 317.03 200.17Z" id="aLqK2ICG2"></path><path d="M487.09 198.44C488.27 200.26 489.46 202.08 490.54 204.04C493.19 208.97 495.32 214.38 496.86 220.11C498.06 224.36 499.06 228.89 498.64 233.4C498.36 235.71 497.9 237.98 497.26 240.16C496.25 244.35 494.99 248.42 493.5 252.35C492.26 255.32 490.86 258.17 489.31 260.87C485.03 268.52 480.35 275.73 475.31 282.47C473.42 284.99 472.61 289.08 471.81 292.48C470.29 298.76 466.69 303.66 463.2 308.3C462.08 309.9 460.84 311.34 459.5 312.6C457.5 314.34 455.15 315.24 452.76 315.18C451.72 315.19 450.69 314.9 449.74 314.33C447.35 312.81 446.14 309.09 445.89 305.54C445.67 302.31 446.07 299.07 447.05 296.12C450.22 286.65 458.35 282.54 464.1 275.63C467.47 271.58 470.05 266.49 472.6 261.46C474.32 258.32 475.76 254.91 476.89 251.3C478.17 246.67 477.67 241.2 478.8 236.5C479.27 234.51 480.15 232.72 480.62 230.75C481.1 228.77 481.26 226.43 480.37 224.73C479.7 223.65 478.84 222.8 477.87 222.26C474.19 219.75 470.08 216.51 469.38 211.03C469.1 207.99 469.69 204.92 471.03 202.45C472.36 200.01 473.91 197.81 475.66 195.9C477.25 193.95 479.96 191.8 481.57 189.92C482.67 191.63 486.54 197.59 487.09 198.44Z" id="i9cjxvAfx"></path><path d="M313.79 202.26C311.85 201.13 309.66 201.13 307.72 202.26C305.81 203.37 304.03 204.83 302.41 206.59C301.93 207.06 298.13 210.85 297.65 211.33C296.57 212.28 295.62 213.47 294.83 214.85C294.07 216.52 293.57 218.37 293.36 220.3C292.68 224.73 292.14 229.29 292.61 233.77C293.37 241.05 296.6 247.34 300.16 252.87C302.38 256.31 305.13 259.79 308.52 259.94C309.98 260.01 311.6 259.22 312.21 257.43C312.42 256.72 312.53 255.96 312.54 255.19C312.9 247.12 310.76 239.23 308.27 231.87C307.59 229.87 306.86 227.8 306.92 225.61C306.9 225.23 306.97 224.86 307.12 224.55C307.33 224.25 307.62 224.06 307.93 224.01C311.35 223.11 317.24 226.69 319.63 221.57C321.18 218.18 319.05 211.95 317.94 208.94C316.97 206.29 315.75 203.58 313.79 202.26Z" id="awJSciqV"></path><path d="M388.49 88.74C389.03 87.43 390.46 87.83 391.54 88.15C395.87 89.63 400.44 88.29 404.91 88.64C409.38 88.98 414.4 91.99 415.3 97.9C418.54 94.8 421.34 90.93 423.55 86.48C424.79 83.97 425.87 81.11 425.7 78.1C425.45 73.77 422.76 70.54 420.31 67.8C419.56 66.98 413.63 60.43 412.89 59.61C411.92 58.4 410.79 57.44 409.57 56.76C407.85 55.97 405.98 56.35 404.18 56.35C398.79 56.35 393 53.03 388.2 56.35C386.18 57.74 384.67 60.13 383.22 62.46C382.55 63.52 377.25 71.99 376.59 73.05C376.09 73.72 375.72 74.56 375.53 75.48C375.34 76.77 375.83 78.04 376.01 79.34C376.32 81.71 375.56 84.23 376.14 86.5C377.1 90.27 380.5 90.81 382.58 92.98C383.35 93.78 384.56 96.51 385.48 96.48C387.08 96.43 388.21 92.43 388.27 90.68C388.23 90.02 388.3 89.35 388.49 88.74Z" id="hbiRXzU2E"></path><path d="M340.96 171.99C340.19 173.58 340.02 175.63 339.36 177.26C337.93 180.85 334.58 182.13 332.5 185.07C332.16 185.47 331.92 186 331.82 186.6C331.81 187.4 332.01 188.18 332.38 188.8C333.39 190.93 341.44 208.02 342.45 210.15C345.82 210.55 349.01 207.72 352.37 208.1C353.62 208.23 354.9 208.82 356.1 208.32C356.96 207.8 357.77 207.14 358.5 206.34C360.52 204.63 363.16 204.43 364.84 202.19C366.52 199.94 366.66 196.64 366.64 193.57C366.67 190.91 366.47 188.26 366.04 185.66C364.56 177.47 359.91 171.16 357 163.9C355.58 160.36 354.81 158.3 351.81 160.73C348.81 163.16 346.02 166.39 343.18 169.2C342.33 169.95 341.58 170.89 340.96 171.99Z" id="c2MLUonedM"></path><path d="M470.52 164.38C472.05 167.05 472.91 170.32 474.39 173.05C475.87 175.78 477.76 177.75 479.38 180.18C481.84 183.88 483.5 188.37 485.13 192.84C481.14 199.85 476.79 206.47 472.11 212.66C471.59 213.49 470.9 214.1 470.13 214.41C469.07 214.56 468.02 213.99 467.34 212.87C466.61 211.85 466.1 210.58 465.41 209.52C463.77 207.24 461.59 205.82 459.25 205.51C456.93 205.2 454.6 205.15 452.28 205.37C451.77 205.45 451.25 205.33 450.79 205.03C450.44 204.71 450.17 204.28 449.98 203.78C447.28 197.52 448.13 189.66 449.09 182.51C449.31 180.87 451.07 167.78 451.29 166.14C451.62 163.01 452.23 159.96 453.13 157.04C453.97 154.63 455.83 150.54 458.13 151.27C460.44 152 463.5 156.51 465.45 158.4C467.34 160.06 469.05 162.07 470.52 164.38Z" id="g2uQNaxAbY"></path><path d="M226.83 291.23L225.77 291.09L184.97 285.54L184.97 215.76L234.91 204.36L271.15 210.06L271.16 210.37L271.16 210.52L273.25 278.42L273.25 278.42L226.83 291.23Z" id="bf8fivCUV"></path><path d="M226.83 291.23L225.77 291.09L225.77 219.56L271.16 210.37L273.25 278.42L273.25 278.42L226.83 291.23Z" id="a3cCrJqPGz"></path><path d="M271.15 210.54L225.77 219.56L184.97 215.76L234.91 204.36L271.15 210.06L271.16 210.37L271.16 210.52L271.16 210.52L271.15 210.54Z" id="bCrzT7vj6"></path><path d="M251.09 222.11L250.03 221.97L209.23 216.41L209.23 146.63L259.18 135.23L295.41 140.94L295.42 141.25L295.42 141.39L297.52 209.29L297.52 209.29L251.09 222.11Z" id="b2MxfioZeo"></path><path d="M251.09 222.11L250.03 221.97L250.03 150.43L295.42 141.25L297.52 209.29L297.52 209.29L251.09 222.11Z" id="nB9OUOhE"></path><path d="M295.41 141.41L250.03 150.43L209.23 146.63L259.18 135.23L295.41 140.94L295.42 141.25L295.42 141.39L295.42 141.39L295.41 141.41Z" id="gDe2Y7CtB"></path></defs><g><g><g><use xlink:href="#aaNxTVgwI" opacity="1" fill="#f2f2f2" fill-opacity="1"></use><g><use xlink:href="#aaNxTVgwI" opacity="1" fill-opacity="0" stroke="#000000" stroke-width="1" stroke-opacity="0"></use></g></g><g><use xlink:href="#b47SwTMZWJ" opacity="1" fill="#3f3d56" fill-opacity="1"></use><g><use xlink:href="#b47SwTMZWJ" opacity="1" fill-opacity="0" stroke="#000000" stroke-width="1" stroke-opacity="0"></use></g></g><g><use xlink:href="#cP33XYo9W" opacity="1" fill="#000000" fill-opacity="0"></use><g><use xlink:href="#cP33XYo9W" opacity="1" fill-opacity="0" stroke="#3f3d56" stroke-width="4" stroke-opacity="1"></use></g></g><g><use xlink:href="#c1GyxfXqLx" opacity="1" fill="#57b793" fill-opacity="1"></use><g><use xlink:href="#c1GyxfXqLx" opacity="1" fill-opacity="0" stroke="#000000" stroke-width="1" stroke-opacity="0"></use></g></g><g><use xlink:href="#a6Pd4W3GJ" opacity="1" fill="#57b793" fill-opacity="1"></use><g><use xlink:href="#a6Pd4W3GJ" opacity="1" fill-opacity="0" stroke="#000000" stroke-width="1" stroke-opacity="0"></use></g></g><g><use xlink:href="#f4OMm94o9C" opacity="1" fill="#57b793" fill-opacity="1"></use><g><use xlink:href="#f4OMm94o9C" opacity="1" fill-opacity="0" stroke="#000000" stroke-width="1" stroke-opacity="0"></use></g></g><g><use xlink:href="#e2lUcnK2LZ" opacity="1" fill="#57b793" fill-opacity="1"></use><g><use xlink:href="#e2lUcnK2LZ" opacity="1" fill-opacity="0" stroke="#000000" stroke-width="1" stroke-opacity="0"></use></g></g><g><use xlink:href="#b7LxJIjgC" opacity="1" fill="#000000" fill-opacity="1"></use><g><use xlink:href="#b7LxJIjgC" opacity="1" fill-opacity="0" stroke="#000000" stroke-width="1" stroke-opacity="0"></use></g></g><g><use xlink:href="#f2jdKYEjSX" opacity="1" fill="#000000" fill-opacity="1"></use><g><use xlink:href="#f2jdKYEjSX" opacity="1" fill-opacity="0" stroke="#000000" stroke-width="1" stroke-opacity="0"></use></g></g><g><use xlink:href="#a5ZsQ2qR0" opacity="1" fill="#000000" fill-opacity="1"></use><g><use xlink:href="#a5ZsQ2qR0" opacity="1" fill-opacity="0" stroke="#000000" stroke-width="1" stroke-opacity="0"></use></g></g><g><use xlink:href="#b27KO4rCgM" opacity="1" fill="#000000" fill-opacity="1"></use><g><use xlink:href="#b27KO4rCgM" opacity="1" fill-opacity="0" stroke="#000000" stroke-width="1" stroke-opacity="0"></use></g></g><g><use xlink:href="#a1nQFlBtPD" opacity="1" fill="#656380" fill-opacity="1"></use><g><use xlink:href="#a1nQFlBtPD" opacity="1" fill-opacity="0" stroke="#000000" stroke-width="1" stroke-opacity="0"></use></g></g><g><use xlink:href="#l1lLvzffuK" opacity="1" fill="#000000" fill-opacity="1"></use><g><use xlink:href="#l1lLvzffuK" opacity="1" fill-opacity="0" stroke="#000000" stroke-width="1" stroke-opacity="0"></use></g></g><g><use xlink:href="#c15edt9FcX" opacity="1" fill="#000000" fill-opacity="0"></use><g><use xlink:href="#c15edt9FcX" opacity="1" fill-opacity="0" stroke="#3f3d56" stroke-width="4" stroke-opacity="1"></use></g></g><g><use xlink:href="#a1uQHZkBhY" opacity="1" fill="#57b793" fill-opacity="1"></use><g><use xlink:href="#a1uQHZkBhY" opacity="1" fill-opacity="0" stroke="#000000" stroke-width="1" stroke-opacity="0"></use></g></g><g><use xlink:href="#f3krHnJyEK" opacity="1" fill="#57b793" fill-opacity="1"></use><g><use xlink:href="#f3krHnJyEK" opacity="1" fill-opacity="0" stroke="#000000" stroke-width="1" stroke-opacity="0"></use></g></g><g><use xlink:href="#a4ERMwTAnC" opacity="1" fill="#57b793" fill-opacity="1"></use><g><use xlink:href="#a4ERMwTAnC" opacity="1" fill-opacity="0" stroke="#000000" stroke-width="1" stroke-opacity="0"></use></g></g><g><use xlink:href="#a4u8pslQF" opacity="1" fill="#57b793" fill-opacity="1"></use><g><use xlink:href="#a4u8pslQF" opacity="1" fill-opacity="0" stroke="#000000" stroke-width="1" stroke-opacity="0"></use></g></g><g><use xlink:href="#bx8VIh4JB" opacity="1" fill="#000000" fill-opacity="1"></use><g><use xlink:href="#bx8VIh4JB" opacity="1" fill-opacity="0" stroke="#000000" stroke-width="1" stroke-opacity="0"></use></g></g><g><use xlink:href="#c52g8Lw8iS" opacity="1" fill="#000000" fill-opacity="1"></use><g><use xlink:href="#c52g8Lw8iS" opacity="1" fill-opacity="0" stroke="#000000" stroke-width="1" stroke-opacity="0"></use></g></g><g><use xlink:href="#aFNgffdfl" opacity="1" fill="#000000" fill-opacity="1"></use><g><use xlink:href="#aFNgffdfl" opacity="1" fill-opacity="0" stroke="#000000" stroke-width="1" stroke-opacity="0"></use></g></g><g><use xlink:href="#a4vZGP6Ypu" opacity="1" fill="#000000" fill-opacity="1"></use><g><use xlink:href="#a4vZGP6Ypu" opacity="1" fill-opacity="0" stroke="#000000" stroke-width="1" stroke-opacity="0"></use></g></g><g><use xlink:href="#b1jFPgeSRG" opacity="1" fill="#6c63ff" fill-opacity="1"></use><g><use xlink:href="#b1jFPgeSRG" opacity="1" fill-opacity="0" stroke="#000000" stroke-width="1" stroke-opacity="0"></use></g></g><g><use xlink:href="#cpf5T6Zx7" opacity="1" fill="#000000" fill-opacity="1"></use><g><use xlink:href="#cpf5T6Zx7" opacity="1" fill-opacity="0" stroke="#000000" stroke-width="1" stroke-opacity="0"></use></g></g><g><use xlink:href="#h17vbPqIPj" opacity="1" fill="#000000" fill-opacity="1"></use><g><use xlink:href="#h17vbPqIPj" opacity="1" fill-opacity="0" stroke="#000000" stroke-width="1" stroke-opacity="0"></use></g></g><g><use xlink:href="#bfuZBwUjF" opacity="1" fill="#3f3d56" fill-opacity="1"></use><g><use xlink:href="#bfuZBwUjF" opacity="1" fill-opacity="0" stroke="#000000" stroke-width="1" stroke-opacity="0"></use></g></g><g><use xlink:href="#b1drrGaynt" opacity="1" fill="#000000" fill-opacity="1"></use><g><use xlink:href="#b1drrGaynt" opacity="1" fill-opacity="0" stroke="#000000" stroke-width="1" stroke-opacity="0"></use></g></g><g><use xlink:href="#a5VFfHFAM" opacity="1" fill="#000000" fill-opacity="1"></use><g><use xlink:href="#a5VFfHFAM" opacity="1" fill-opacity="0" stroke="#000000" stroke-width="1" stroke-opacity="0"></use></g></g><g><use xlink:href="#d71i4oLMcz" opacity="1" fill="#3f3d56" fill-opacity="1"></use><g><use xlink:href="#d71i4oLMcz" opacity="1" fill-opacity="0" stroke="#000000" stroke-width="1" stroke-opacity="0"></use></g></g><g><use xlink:href="#barMUwvVh" opacity="1" fill="#000000" fill-opacity="1"></use><g><use xlink:href="#barMUwvVh" opacity="1" fill-opacity="0" stroke="#000000" stroke-width="1" stroke-opacity="0"></use></g></g><g><use xlink:href="#e4GogC9rS1" opacity="1" fill="#000000" fill-opacity="1"></use><g><use xlink:href="#e4GogC9rS1" opacity="1" fill-opacity="0" stroke="#000000" stroke-width="1" stroke-opacity="0"></use></g></g><g><use xlink:href="#b2CFZelwOI" opacity="1" fill="#3f3d56" fill-opacity="1"></use><g><use xlink:href="#b2CFZelwOI" opacity="1" fill-opacity="0" stroke="#000000" stroke-width="1" stroke-opacity="0"></use></g></g><g><use xlink:href="#a18IcMu8hc" opacity="1" fill="#000000" fill-opacity="1"></use><g><use xlink:href="#a18IcMu8hc" opacity="1" fill-opacity="0" stroke="#000000" stroke-width="1" stroke-opacity="0"></use></g></g><g><use xlink:href="#cACwqGyzB" opacity="1" fill="#000000" fill-opacity="1"></use><g><use xlink:href="#cACwqGyzB" opacity="1" fill-opacity="0" stroke="#000000" stroke-width="1" stroke-opacity="0"></use></g></g><g><use xlink:href="#g1rFskbHrn" opacity="1" fill="#3f3d56" fill-opacity="1"></use><g><use xlink:href="#g1rFskbHrn" opacity="1" fill-opacity="0" stroke="#000000" stroke-width="1" stroke-opacity="0"></use></g></g><g><use xlink:href="#aptg1abq2" opacity="1" fill="#000000" fill-opacity="1"></use><g><use xlink:href="#aptg1abq2" opacity="1" fill-opacity="0" stroke="#000000" stroke-width="1" stroke-opacity="0"></use></g></g><g><use xlink:href="#a2W5Yhknb3" opacity="1" fill="#000000" fill-opacity="1"></use><g><use xlink:href="#a2W5Yhknb3" opacity="1" fill-opacity="0" stroke="#000000" stroke-width="1" stroke-opacity="0"></use></g></g><g><use xlink:href="#gjdhs0cgV" opacity="1" fill="#6c63ff" fill-opacity="1"></use><g><use xlink:href="#gjdhs0cgV" opacity="1" fill-opacity="0" stroke="#000000" stroke-width="1" stroke-opacity="0"></use></g></g><g><use xlink:href="#g33shHULzH" opacity="1" fill="#000000" fill-opacity="1"></use><g><use xlink:href="#g33shHULzH" opacity="1" fill-opacity="0" stroke="#000000" stroke-width="1" stroke-opacity="0"></use></g></g><g><use xlink:href="#akb5UBoL" opacity="1" fill="#000000" fill-opacity="1"></use><g><use xlink:href="#akb5UBoL" opacity="1" fill-opacity="0" stroke="#000000" stroke-width="1" stroke-opacity="0"></use></g></g><g><use xlink:href="#cOcE29aRw" opacity="1" fill="#3f3d56" fill-opacity="1"></use><g><use xlink:href="#cOcE29aRw" opacity="1" fill-opacity="0" stroke="#000000" stroke-width="1" stroke-opacity="0"></use></g></g><g><use xlink:href="#d56NSvvZGQ" opacity="1" fill="#000000" fill-opacity="1"></use><g><use xlink:href="#d56NSvvZGQ" opacity="1" fill-opacity="0" stroke="#000000" stroke-width="1" stroke-opacity="0"></use></g></g><g><use xlink:href="#cWMFP1JuR" opacity="1" fill="#000000" fill-opacity="1"></use><g><use xlink:href="#cWMFP1JuR" opacity="1" fill-opacity="0" stroke="#000000" stroke-width="1" stroke-opacity="0"></use></g></g><g><use xlink:href="#asKsL77al" opacity="1" fill="#ffc0c6" fill-opacity="1"></use><g><use xlink:href="#asKsL77al" opacity="1" fill-opacity="0" stroke="#000000" stroke-width="1" stroke-opacity="0"></use></g></g><g><use xlink:href="#c64XZpwPuS" opacity="1" fill="#000000" fill-opacity="1"></use><g><use xlink:href="#c64XZpwPuS" opacity="1" fill-opacity="0" stroke="#000000" stroke-width="1" stroke-opacity="0"></use></g></g><g><use xlink:href="#aIO0uzkPE" opacity="1" fill="#605d82" fill-opacity="1"></use><g><use xlink:href="#aIO0uzkPE" opacity="1" fill-opacity="0" stroke="#000000" stroke-width="1" stroke-opacity="0"></use></g></g><g><use xlink:href="#d1edXIwjn" opacity="1" fill="#000000" fill-opacity="1"></use><g><use xlink:href="#d1edXIwjn" opacity="1" fill-opacity="0" stroke="#000000" stroke-width="1" stroke-opacity="0"></use></g></g><g><use xlink:href="#aOwygRs2Y" opacity="1" fill="#605d82" fill-opacity="1"></use><g><use xlink:href="#aOwygRs2Y" opacity="1" fill-opacity="0" stroke="#000000" stroke-width="1" stroke-opacity="0"></use></g></g><g><use xlink:href="#a1LikkeTpu" opacity="1" fill="#535070" fill-opacity="1"></use><g><use xlink:href="#a1LikkeTpu" opacity="1" fill-opacity="0" stroke="#000000" stroke-width="1" stroke-opacity="0"></use></g></g><g><use xlink:href="#c7Exy1G3E" opacity="1" fill="#535070" fill-opacity="1"></use><g><use xlink:href="#c7Exy1G3E" opacity="1" fill-opacity="0" stroke="#000000" stroke-width="1" stroke-opacity="0"></use></g></g><g><use xlink:href="#d6q84HmPQ" opacity="1" fill="#3f3d56" fill-opacity="1"></use><g><use xlink:href="#d6q84HmPQ" opacity="1" fill-opacity="0" stroke="#000000" stroke-width="1" stroke-opacity="0"></use></g></g><g><use xlink:href="#e4kBKObhD" opacity="1" fill="#ffc0c6" fill-opacity="1"></use><g><use xlink:href="#e4kBKObhD" opacity="1" fill-opacity="0" stroke="#000000" stroke-width="1" stroke-opacity="0"></use></g></g><g><use xlink:href="#aN4oMED34" opacity="1" fill="#3f3d56" fill-opacity="1"></use><g><use xlink:href="#aN4oMED34" opacity="1" fill-opacity="0" stroke="#000000" stroke-width="1" stroke-opacity="0"></use></g></g><g><use xlink:href="#aLqK2ICG2" opacity="1" fill="#ffc0c6" fill-opacity="1"></use><g><use xlink:href="#aLqK2ICG2" opacity="1" fill-opacity="0" stroke="#000000" stroke-width="1" stroke-opacity="0"></use></g></g><g><use xlink:href="#i9cjxvAfx" opacity="1" fill="#ffc0c6" fill-opacity="1"></use><g><use xlink:href="#i9cjxvAfx" opacity="1" fill-opacity="0" stroke="#000000" stroke-width="1" stroke-opacity="0"></use></g></g><g><use xlink:href="#awJSciqV" opacity="1" fill="#ffc0c6" fill-opacity="1"></use><g><use xlink:href="#awJSciqV" opacity="1" fill-opacity="0" stroke="#000000" stroke-width="1" stroke-opacity="0"></use></g></g><g><use xlink:href="#hbiRXzU2E" opacity="1" fill="#3f3d56" fill-opacity="1"></use><g><use xlink:href="#hbiRXzU2E" opacity="1" fill-opacity="0" stroke="#000000" stroke-width="1" stroke-opacity="0"></use></g></g><g><use xlink:href="#c2MLUonedM" opacity="1" fill="#3f3d56" fill-opacity="1"></use><g><use xlink:href="#c2MLUonedM" opacity="1" fill-opacity="0" stroke="#000000" stroke-width="1" stroke-opacity="0"></use></g></g><g><use xlink:href="#g2uQNaxAbY" opacity="1" fill="#3f3d56" fill-opacity="1"></use><g><use xlink:href="#g2uQNaxAbY" opacity="1" fill-opacity="0" stroke="#000000" stroke-width="1" stroke-opacity="0"></use></g></g><g><use xlink:href="#bf8fivCUV" opacity="1" fill="#6c63ff" fill-opacity="1"></use><g><use xlink:href="#bf8fivCUV" opacity="1" fill-opacity="0" stroke="#000000" stroke-width="1" stroke-opacity="0"></use></g></g><g><use xlink:href="#a3cCrJqPGz" opacity="1" fill="#000000" fill-opacity="1"></use><g><use xlink:href="#a3cCrJqPGz" opacity="1" fill-opacity="0" stroke="#000000" stroke-width="1" stroke-opacity="0"></use></g></g><g><use xlink:href="#bCrzT7vj6" opacity="1" fill="#000000" fill-opacity="1"></use><g><use xlink:href="#bCrzT7vj6" opacity="1" fill-opacity="0" stroke="#000000" stroke-width="1" stroke-opacity="0"></use></g></g><g><use xlink:href="#b2MxfioZeo" opacity="1" fill="#3f3d56" fill-opacity="1"></use><g><use xlink:href="#b2MxfioZeo" opacity="1" fill-opacity="0" stroke="#000000" stroke-width="1" stroke-opacity="0"></use></g></g><g><use xlink:href="#nB9OUOhE" opacity="1" fill="#000000" fill-opacity="1"></use><g><use xlink:href="#nB9OUOhE" opacity="1" fill-opacity="0" stroke="#000000" stroke-width="1" stroke-opacity="0"></use></g></g><g><use xlink:href="#gDe2Y7CtB" opacity="1" fill="#000000" fill-opacity="1"></use><g><use xlink:href="#gDe2Y7CtB" opacity="1" fill-opacity="0" stroke="#000000" stroke-width="1" stroke-opacity="0"></use></g></g></g></g></svg>