<?xml version="1.0" encoding="UTF-8" standalone="no"?>
<!DOCTYPE svg PUBLIC "-//W3C//DTD SVG 1.1//EN" "http://www.w3.org/Graphics/SVG/1.1/DTD/svg11.dtd">
<svg version="1.1" xmlns="http://www.w3.org/2000/svg" xmlns:xlink="http://www.w3.org/1999/xlink" preserveAspectRatio="xMidYMid meet" viewBox="0 0 640 640" width="75" height="75"><defs><path d="M19.6 51.26C7.14 62.48 0 79.4 0 97.68C0 107.42 0 185.29 0 195.03C0 213.31 7.14 230.23 19.6 241.46C54.16 272.59 102.08 292.71 141.67 292.71C156.93 292.71 171.71 289.79 185.78 284.02C185.78 296.54 185.78 396.69 185.78 409.21C185.78 415.07 189.99 419.82 195.18 419.82C200.37 419.82 204.57 415.07 204.57 409.21C204.57 391.39 204.57 248.85 204.57 231.03C204.57 225.17 200.37 220.42 195.18 220.42C189.99 220.42 185.78 225.17 185.78 231.03C185.78 234.05 185.78 258.16 185.78 261.17C171.87 268.02 157.06 271.49 141.67 271.49C106.07 271.49 62.75 253.19 31.31 224.87C23.35 217.7 18.79 206.82 18.79 195.03C18.79 185.29 18.79 107.42 18.79 97.68C18.79 85.89 23.35 75.02 31.31 67.84C62.75 39.52 106.07 21.22 141.67 21.22C202.77 21.22 252.48 77.36 252.48 146.36C252.48 192.33 252.48 560.08 252.48 606.05C252.48 613.07 247.42 618.78 241.2 618.78C238.67 618.78 218.38 618.78 215.85 618.78C209.63 618.78 204.57 613.07 204.57 606.05C204.57 590.61 204.57 467.08 204.57 451.64C204.57 445.78 200.37 441.03 195.18 441.03C189.99 441.03 185.78 445.78 185.78 451.64C185.78 467.08 185.78 590.61 185.78 606.05C185.78 624.77 199.27 640 215.85 640C218.38 640 238.67 640 241.2 640C257.78 640 271.26 624.77 271.26 606.05C271.26 560.08 271.26 192.33 271.26 146.36C271.26 65.66 213.13 0 141.67 0C102.08 0 54.16 20.12 19.6 51.26Z" id="m2O6Bgf6Bg"></path><path d="M58.62 155.47C58.62 161.33 62.83 166.08 68.02 166.08C73.2 166.08 77.41 161.33 77.41 155.47C77.41 153.13 77.41 134.42 77.41 132.08C77.41 126.23 73.2 121.48 68.02 121.48C62.83 121.48 58.62 126.23 58.62 132.08C58.62 136.76 58.62 153.13 58.62 155.47Z" id="b2zezoKw5N"></path><path d="M156.39 70.07C154.65 75.59 157.2 81.66 162.08 83.63C162.24 83.69 177.75 90.33 190.39 109.18C198.27 120.09 212.53 107.82 205.37 96.36C189.17 72.23 169.24 63.99 168.4 63.65C163.51 61.68 158.14 64.56 156.39 70.07Z" id="c45TmytwO5"></path><path d="M498.33 0C426.87 0 368.74 65.66 368.74 146.36C368.74 152.7 368.74 203.47 368.74 209.81C368.74 215.67 372.94 220.42 378.13 220.42C383.32 220.42 387.52 215.67 387.52 209.81C387.52 203.47 387.52 152.7 387.52 146.36C387.52 77.35 437.23 21.22 498.33 21.22C533.93 21.22 577.25 39.52 608.69 67.84C616.65 75.02 621.22 85.89 621.22 97.68C621.22 107.42 621.22 185.29 621.22 195.03C621.22 206.82 616.65 217.7 608.69 224.87C577.25 253.19 533.93 271.5 498.33 271.5C482.94 271.5 468.13 268.02 454.22 261.17C454.22 258.16 454.22 234.05 454.22 231.03C454.22 225.17 450.01 220.42 444.82 220.42C439.63 220.42 435.43 225.17 435.43 231.03C435.43 256.03 435.43 455.98 435.43 480.98C435.43 486.84 439.63 491.59 444.82 491.59C450.01 491.59 454.22 486.84 454.22 480.98C454.22 461.28 454.22 303.72 454.22 284.02C468.29 289.79 483.07 292.71 498.33 292.71C537.92 292.71 585.84 272.59 620.4 241.46C632.86 230.24 640 213.31 640 195.03C640 185.3 640 107.42 640 97.68C640 79.4 632.86 62.48 620.4 51.26C585.84 20.12 537.92 0 498.33 0Z" id="ahJhy5cA4"></path><path d="M435.43 523.41C435.43 531.68 435.43 597.79 435.43 606.05C435.43 613.07 430.37 618.78 424.15 618.78C421.62 618.78 401.33 618.78 398.8 618.78C392.58 618.78 387.52 613.07 387.52 606.05C387.52 570.67 387.52 287.63 387.52 252.25C387.52 246.39 383.31 241.64 378.13 241.64C372.94 241.64 368.73 246.39 368.73 252.25C368.73 287.63 368.73 570.67 368.73 606.05C368.73 624.77 382.22 640 398.79 640C401.33 640 421.61 640 424.15 640C440.73 640 454.21 624.77 454.21 606.05C454.21 597.79 454.21 531.68 454.21 523.41C454.22 517.55 450.01 512.8 444.82 512.8C439.63 512.8 435.43 517.55 435.43 523.41Z" id="cuFGNSqc3"></path><path d="M581.38 132.08C581.38 126.23 577.17 121.48 571.98 121.48C566.79 121.48 562.59 126.23 562.59 132.08C562.59 134.42 562.59 153.13 562.59 155.47C562.59 161.33 566.79 166.08 571.98 166.08C577.17 166.08 581.38 161.33 581.38 155.47C581.38 150.79 581.38 134.42 581.38 132.08Z" id="a1utfWJv6E"></path><path d="M449.6 109.18C462.17 90.44 477.59 83.77 477.96 83.62C482.82 81.63 485.34 75.58 483.61 70.08C481.86 64.56 476.49 61.68 471.6 63.65C470.76 63.99 450.83 72.23 434.63 96.37C431.5 101.03 432.31 107.69 436.45 111.23C440.54 114.75 446.46 113.87 449.6 109.18Z" id="dBBqnNGnB"></path></defs><g><g><g><use xlink:href="#m2O6Bgf6Bg" opacity="1" fill="#ffffff" fill-opacity="1"></use><g><use xlink:href="#m2O6Bgf6Bg" opacity="1" fill-opacity="0" stroke="#000000" stroke-width="1" stroke-opacity="0"></use></g></g><g><use xlink:href="#b2zezoKw5N" opacity="1" fill="#ffffff" fill-opacity="1"></use><g><use xlink:href="#b2zezoKw5N" opacity="1" fill-opacity="0" stroke="#000000" stroke-width="1" stroke-opacity="0"></use></g></g><g><use xlink:href="#c45TmytwO5" opacity="1" fill="#ffffff" fill-opacity="1"></use><g><use xlink:href="#c45TmytwO5" opacity="1" fill-opacity="0" stroke="#000000" stroke-width="1" stroke-opacity="0"></use></g></g><g><use xlink:href="#ahJhy5cA4" opacity="1" fill="#ffffff" fill-opacity="1"></use><g><use xlink:href="#ahJhy5cA4" opacity="1" fill-opacity="0" stroke="#000000" stroke-width="1" stroke-opacity="0"></use></g></g><g><use xlink:href="#cuFGNSqc3" opacity="1" fill="#ffffff" fill-opacity="1"></use><g><use xlink:href="#cuFGNSqc3" opacity="1" fill-opacity="0" stroke="#000000" stroke-width="1" stroke-opacity="0"></use></g></g><g><use xlink:href="#a1utfWJv6E" opacity="1" fill="#ffffff" fill-opacity="1"></use><g><use xlink:href="#a1utfWJv6E" opacity="1" fill-opacity="0" stroke="#000000" stroke-width="1" stroke-opacity="0"></use></g></g><g><use xlink:href="#dBBqnNGnB" opacity="1" fill="#ffffff" fill-opacity="1"></use><g><use xlink:href="#dBBqnNGnB" opacity="1" fill-opacity="0" stroke="#000000" stroke-width="1" stroke-opacity="0"></use></g></g></g></g></svg>