<?xml version="1.0" encoding="UTF-8" standalone="no"?>
<!DOCTYPE svg PUBLIC "-//W3C//DTD SVG 1.1//EN" "http://www.w3.org/Graphics/SVG/1.1/DTD/svg11.dtd">
<svg version="1.1" xmlns="http://www.w3.org/2000/svg" xmlns:xlink="http://www.w3.org/1999/xlink" preserveAspectRatio="xMidYMid meet" viewBox="0 0 640 640" width="50" height="50"><defs><path d="M75 0C33.64 0 0 33.64 0 75C0 124 0 516 0 565C0 606.36 33.64 640 75 640C124 640 516 640 565 640C606.36 640 640 606.36 640 565C640 516 640 124 640 75C640 33.64 606.36 0 565 0C467 0 124 0 75 0ZM590 565C590 578.78 578.78 590 565 590C555.17 590 506 590 417.5 590L417.5 407.5L497.53 407.5L506.86 330L417.5 330C417.5 279.75 417.5 251.83 417.5 246.25C417.5 224.87 433.62 208.75 455 208.75C458.75 208.75 477.5 208.75 511.25 208.75C511.25 165.25 511.25 141.08 511.25 136.25C496.45 134.16 467.89 131.25 455 131.25C425.84 131.25 396.62 143.55 374.82 164.99C352.37 187.08 340 216.02 340 246.47C340 252.04 340 279.88 340 330L258.75 330L258.75 407.5L340 407.5L340 590C181 590 92.67 590 75 590C61.22 590 50 578.78 50 565C50 516 50 124 50 75C50 61.22 61.22 50 75 50C124 50 516 50 565 50C578.78 50 590 61.22 590 75C590 173 590 467 590 565Z" id="b1jjfNse8e"></path></defs><g><g><g><use xlink:href="#b1jjfNse8e" opacity="1" fill="#000000" fill-opacity="1"></use><g><use xlink:href="#b1jjfNse8e" opacity="1" fill-opacity="0" stroke="#000000" stroke-width="1" stroke-opacity="0"></use></g></g></g></g></svg>