<?xml version="1.0" encoding="UTF-8" standalone="no"?>
<!DOCTYPE svg PUBLIC "-//W3C//DTD SVG 1.1//EN" "http://www.w3.org/Graphics/SVG/1.1/DTD/svg11.dtd">
<svg version="1.1" xmlns="http://www.w3.org/2000/svg" xmlns:xlink="http://www.w3.org/1999/xlink" preserveAspectRatio="xMidYMid meet" viewBox="0 0 640 640" width="75" height="75"><defs><path d="M219.1 370.08C240.51 370.08 257.93 354.86 257.93 336.14C257.93 317.42 240.51 302.2 219.1 302.2C197.69 302.2 180.28 317.42 180.28 336.14C180.28 354.86 197.69 370.08 219.1 370.08ZM219.1 318.62C230.15 318.62 239.14 326.48 239.14 336.14C239.14 345.8 230.15 353.66 219.1 353.66C208.05 353.66 199.06 345.8 199.06 336.14C199.06 326.48 208.05 318.62 219.1 318.62Z" id="dBZg45cDB"></path><path d="M219.1 370.08C240.51 370.08 257.93 354.86 257.93 336.14C257.93 317.42 240.51 302.2 219.1 302.2C197.69 302.2 180.28 317.42 180.28 336.14C180.28 354.86 197.69 370.08 219.1 370.08ZM219.1 318.62C230.15 318.62 239.14 326.48 239.14 336.14C239.14 345.8 230.15 353.66 219.1 353.66C208.05 353.66 199.06 345.8 199.06 336.14C199.06 326.48 208.05 318.62 219.1 318.62Z" id="jyHoRKYM2"></path><path d="M459.72 336.14C459.72 317.42 442.31 302.2 420.9 302.2C399.49 302.2 382.07 317.42 382.07 336.14C382.07 354.86 399.49 370.08 420.9 370.08C442.31 370.08 459.72 354.86 459.72 336.14ZM420.9 353.66C409.85 353.66 400.86 345.8 400.86 336.14C400.86 326.48 409.85 318.62 420.9 318.62C431.95 318.62 440.94 326.48 440.94 336.14C440.94 345.8 431.95 353.66 420.9 353.66Z" id="arLW1HO7O"></path><path d="M459.72 336.14C459.72 317.42 442.31 302.2 420.9 302.2C399.49 302.2 382.07 317.42 382.07 336.14C382.07 354.86 399.49 370.08 420.9 370.08C442.31 370.08 459.72 354.86 459.72 336.14ZM420.9 353.66C409.85 353.66 400.86 345.8 400.86 336.14C400.86 326.48 409.85 318.62 420.9 318.62C431.95 318.62 440.94 326.48 440.94 336.14C440.94 345.8 431.95 353.66 420.9 353.66Z" id="aejdCAkxX"></path><path d="M596.49 230.78C590.53 194.22 562.39 164.32 525.06 150.9C525.06 149.37 525.06 137.18 525.06 135.65C525.06 122.07 512.42 111.02 496.88 111.02C493.34 111.02 465 111.02 461.46 111.02C445.92 111.02 433.28 122.07 433.28 135.65C433.28 137.31 433.28 150.5 433.28 152.15C420.79 157.05 409.26 163.9 399.21 172.57C383.37 172.57 256.63 172.57 240.79 172.57C230.73 163.9 219.21 157.05 206.72 152.15C206.72 150.5 206.72 137.31 206.72 135.65C206.72 122.07 194.08 111.02 178.54 111.02C175 111.02 146.66 111.02 143.12 111.02C127.58 111.02 114.94 122.07 114.94 135.65C114.94 137.18 114.94 149.37 114.94 150.9C77.61 164.32 49.47 194.22 43.51 230.77C43.47 230.91 43.44 231.05 43.42 231.19C42.05 238.3 31.14 295.09 29.78 302.19C28.92 306.66 32.37 310.89 37.49 311.65C42.6 312.39 47.45 309.38 48.3 304.91C49.66 297.88 60.46 241.62 61.81 234.59C61.9 234.29 61.97 233.98 62.01 233.67C68.55 191.5 110.24 159.69 158.99 159.69C184.89 159.69 209.05 168.37 227.45 184.16C227.45 185.28 227.45 194.25 227.45 195.37C227.45 211.98 242.9 225.48 261.89 225.48C265.82 225.48 297.28 225.48 301.21 225.48C306.4 225.48 310.61 221.81 310.61 217.27C310.61 212.74 306.4 209.07 301.21 209.07C297.28 209.07 265.82 209.07 261.89 209.07C253.26 209.07 246.23 202.92 246.23 195.37C246.23 194.95 246.23 192.82 246.23 188.98C260.98 188.98 379.01 188.98 393.76 188.98C393.76 192.82 393.76 194.95 393.76 195.37C393.76 202.92 386.74 209.07 378.11 209.07C374.18 209.07 342.72 209.07 338.78 209.07C333.6 209.07 329.39 212.74 329.39 217.27C329.39 221.81 333.6 225.48 338.78 225.48C342.72 225.48 374.18 225.48 378.11 225.48C397.1 225.48 412.55 211.98 412.55 195.37C412.55 194.25 412.55 185.28 412.55 184.16C430.95 168.36 455.1 159.69 481 159.69C529.75 159.69 571.45 191.5 577.98 233.67C578.03 233.98 578.1 234.28 578.18 234.58C582.41 256.55 616.18 432.38 620.4 454.36C624.83 477.42 610.67 499.79 585.97 508.75C571.18 514.13 555 513.88 540.42 508.09C525.85 502.3 515.01 491.8 509.91 478.53C509.05 476.28 502.13 458.28 501.27 456.02C499.62 451.72 494.29 449.41 489.37 450.85C484.46 452.29 481.81 456.95 483.46 461.25C484.32 463.5 491.24 481.51 492.11 483.76C498.78 501.14 513.56 515.46 532.65 523.05C542.59 526.99 553.33 528.98 564.08 528.98C573.98 528.98 583.88 527.29 593.17 523.92C626 512.01 644.82 482.29 638.93 451.64C630.46 407.55 600.82 253.24 596.58 231.19C596.56 231.05 596.53 230.92 596.49 230.78ZM143.12 127.45C146.66 127.45 175 127.45 178.54 127.45C183.72 127.45 187.93 131.13 187.93 135.65C187.93 136.73 187.93 145.34 187.93 146.41C178.6 144.34 168.91 143.27 159 143.27C150.35 143.27 141.89 144.12 133.72 145.72C133.72 143.71 133.72 136.66 133.72 135.65C133.72 131.13 137.94 127.45 143.12 127.45ZM461.46 127.45C465 127.45 493.34 127.45 496.88 127.45C502.06 127.45 506.28 131.13 506.28 135.65C506.28 136.66 506.28 144.71 506.28 145.72C498.11 144.12 489.65 143.27 481 143.27C471.09 143.27 461.4 144.34 452.07 146.41C452.07 144.26 452.07 136.73 452.07 135.65C452.07 131.13 456.28 127.45 461.46 127.45Z" id="a2VpYFElnU"></path><path d="M596.49 230.78C590.53 194.22 562.39 164.32 525.06 150.9C525.06 149.37 525.06 137.18 525.06 135.65C525.06 122.07 512.42 111.02 496.88 111.02C493.34 111.02 465 111.02 461.46 111.02C445.92 111.02 433.28 122.07 433.28 135.65C433.28 137.31 433.28 150.5 433.28 152.15C420.79 157.05 409.26 163.9 399.21 172.57C383.37 172.57 256.63 172.57 240.79 172.57C230.73 163.9 219.21 157.05 206.72 152.15C206.72 150.5 206.72 137.31 206.72 135.65C206.72 122.07 194.08 111.02 178.54 111.02C175 111.02 146.66 111.02 143.12 111.02C127.58 111.02 114.94 122.07 114.94 135.65C114.94 137.18 114.94 149.37 114.94 150.9C77.61 164.32 49.47 194.22 43.51 230.77C43.47 230.91 43.44 231.05 43.42 231.19C42.05 238.3 31.14 295.09 29.78 302.19C28.92 306.66 32.37 310.89 37.49 311.65C42.6 312.39 47.45 309.38 48.3 304.91C49.66 297.88 60.46 241.62 61.81 234.59C61.9 234.29 61.97 233.98 62.01 233.67C68.55 191.5 110.24 159.69 158.99 159.69C184.89 159.69 209.05 168.37 227.45 184.16C227.45 185.28 227.45 194.25 227.45 195.37C227.45 211.98 242.9 225.48 261.89 225.48C265.82 225.48 297.28 225.48 301.21 225.48C306.4 225.48 310.61 221.81 310.61 217.27C310.61 212.74 306.4 209.07 301.21 209.07C297.28 209.07 265.82 209.07 261.89 209.07C253.26 209.07 246.23 202.92 246.23 195.37C246.23 194.95 246.23 192.82 246.23 188.98C260.98 188.98 379.01 188.98 393.76 188.98C393.76 192.82 393.76 194.95 393.76 195.37C393.76 202.92 386.74 209.07 378.11 209.07C374.18 209.07 342.72 209.07 338.78 209.07C333.6 209.07 329.39 212.74 329.39 217.27C329.39 221.81 333.6 225.48 338.78 225.48C342.72 225.48 374.18 225.48 378.11 225.48C397.1 225.48 412.55 211.98 412.55 195.37C412.55 194.25 412.55 185.28 412.55 184.16C430.95 168.36 455.1 159.69 481 159.69C529.75 159.69 571.45 191.5 577.98 233.67C578.03 233.98 578.1 234.28 578.18 234.58C582.41 256.55 616.18 432.38 620.4 454.36C624.83 477.42 610.67 499.79 585.97 508.75C571.18 514.13 555 513.88 540.42 508.09C525.85 502.3 515.01 491.8 509.91 478.53C509.05 476.28 502.13 458.28 501.27 456.02C499.62 451.72 494.29 449.41 489.37 450.85C484.46 452.29 481.81 456.95 483.46 461.25C484.32 463.5 491.24 481.51 492.11 483.76C498.78 501.14 513.56 515.46 532.65 523.05C542.59 526.99 553.33 528.98 564.08 528.98C573.98 528.98 583.88 527.29 593.17 523.92C626 512.01 644.82 482.29 638.93 451.64C630.46 407.55 600.82 253.24 596.58 231.19C596.56 231.05 596.53 230.92 596.49 230.78ZM143.12 127.45C146.66 127.45 175 127.45 178.54 127.45C183.72 127.45 187.93 131.13 187.93 135.65C187.93 136.73 187.93 145.34 187.93 146.41C178.6 144.34 168.91 143.27 159 143.27C150.35 143.27 141.89 144.12 133.72 145.72C133.72 143.71 133.72 136.66 133.72 135.65C133.72 131.13 137.94 127.45 143.12 127.45ZM461.46 127.45C465 127.45 493.34 127.45 496.88 127.45C502.06 127.45 506.28 131.13 506.28 135.65C506.28 136.66 506.28 144.71 506.28 145.72C498.11 144.12 489.65 143.27 481 143.27C471.09 143.27 461.4 144.34 452.07 146.41C452.07 144.26 452.07 136.73 452.07 135.65C452.07 131.13 456.28 127.45 461.46 127.45Z" id="afLtcT4Hy"></path><path d="M466.55 376.2C463.7 375.41 460.59 375.86 458.17 377.39C447.97 383.89 435.9 387.32 423.26 387.32C406.99 387.32 391.8 381.67 380.5 371.4C378.73 369.79 376.29 368.88 373.73 368.88C362.99 368.88 277.02 368.88 266.27 368.88C263.72 368.88 261.27 369.79 259.5 371.4C248.2 381.67 233.01 387.32 216.74 387.32C204.1 387.32 192.03 383.89 181.83 377.39C179.41 375.86 176.3 375.41 173.45 376.2C170.6 377 168.35 378.93 167.4 381.41C163.67 391.12 133.82 468.82 130.09 478.53C124.99 491.8 114.15 502.3 99.58 508.09C85 513.89 68.82 514.12 54.03 508.75C29.33 499.79 15.17 477.43 19.6 454.36C21.85 442.66 39.83 349.03 42.08 337.33C42.94 332.85 39.49 328.62 34.37 327.87C29.25 327.12 24.41 330.13 23.55 334.61C21.31 346.31 3.32 439.94 1.07 451.64C-4.81 482.29 14 512.01 46.83 523.92C56.12 527.3 66.02 528.98 75.92 528.98C86.67 528.98 97.41 526.99 107.35 523.05C126.44 515.46 141.22 501.14 147.9 483.76C151.25 475.02 178.1 405.14 181.46 396.4C192.33 401.23 204.33 403.75 216.74 403.75C236.8 403.75 255.6 397.23 270.13 385.31C280.1 385.31 359.9 385.31 369.88 385.31C384.41 397.23 403.21 403.75 423.27 403.75C435.68 403.75 447.68 401.23 458.55 396.4C459.84 399.77 470.2 426.72 471.49 430.1C473.14 434.4 478.47 436.71 483.39 435.27C488.3 433.83 490.95 429.17 489.3 424.87C485.96 416.18 474.27 385.76 472.61 381.41C471.65 378.93 469.4 377 466.55 376.2Z" id="c1UZUC5vFA"></path><path d="M466.55 376.2C463.7 375.41 460.59 375.86 458.17 377.39C447.97 383.89 435.9 387.32 423.26 387.32C406.99 387.32 391.8 381.67 380.5 371.4C378.73 369.79 376.29 368.88 373.73 368.88C362.99 368.88 277.02 368.88 266.27 368.88C263.72 368.88 261.27 369.79 259.5 371.4C248.2 381.67 233.01 387.32 216.74 387.32C204.1 387.32 192.03 383.89 181.83 377.39C179.41 375.86 176.3 375.41 173.45 376.2C170.6 377 168.35 378.93 167.4 381.41C163.67 391.12 133.82 468.82 130.09 478.53C124.99 491.8 114.15 502.3 99.58 508.09C85 513.89 68.82 514.12 54.03 508.75C29.33 499.79 15.17 477.43 19.6 454.36C21.85 442.66 39.83 349.03 42.08 337.33C42.94 332.85 39.49 328.62 34.37 327.87C29.25 327.12 24.41 330.13 23.55 334.61C21.31 346.31 3.32 439.94 1.07 451.64C-4.81 482.29 14 512.01 46.83 523.92C56.12 527.3 66.02 528.98 75.92 528.98C86.67 528.98 97.41 526.99 107.35 523.05C126.44 515.46 141.22 501.14 147.9 483.76C151.25 475.02 178.1 405.14 181.46 396.4C192.33 401.23 204.33 403.75 216.74 403.75C236.8 403.75 255.6 397.23 270.13 385.31C280.1 385.31 359.9 385.31 369.88 385.31C384.41 397.23 403.21 403.75 423.27 403.75C435.68 403.75 447.68 401.23 458.55 396.4C459.84 399.77 470.2 426.72 471.49 430.1C473.14 434.4 478.47 436.71 483.39 435.27C488.3 433.83 490.95 429.17 489.3 424.87C485.96 416.18 474.27 385.76 472.61 381.41C471.65 378.93 469.4 377 466.55 376.2Z" id="b55brOa7t"></path><path d="M130.43 221.79C129.15 221.79 128.45 221.79 128.3 221.79C112.14 221.79 98.98 233.29 98.98 247.42C98.98 261.55 112.13 273.06 128.3 273.06C128.45 273.06 129.15 273.06 130.43 273.06C130.43 274.17 130.43 274.79 130.43 274.92C130.43 289.04 143.58 300.55 159.75 300.55C175.92 300.55 189.07 289.04 189.07 274.92C189.07 274.79 189.07 274.17 189.07 273.06C190.35 273.06 191.06 273.06 191.2 273.06C207.37 273.06 220.52 261.55 220.52 247.42C220.52 233.29 207.37 221.79 191.2 221.79C191.06 221.79 190.35 221.79 189.07 221.79C189.07 220.67 189.07 220.06 189.07 219.93C189.07 205.8 175.92 194.3 159.75 194.3C143.58 194.3 130.43 205.8 130.43 219.93C130.43 220.06 130.43 220.67 130.43 221.79ZM201.73 247.42C201.73 252.5 197.01 256.63 191.2 256.63C190.05 256.63 180.83 256.63 179.68 256.63C174.49 256.63 170.29 260.31 170.29 264.84C170.29 265.85 170.29 273.91 170.29 274.92C170.29 279.99 165.56 284.12 159.75 284.12C153.94 284.12 149.21 279.99 149.21 274.92C149.21 273.91 149.21 265.85 149.21 264.84C149.21 260.31 145.01 256.63 139.82 256.63C138.67 256.63 129.46 256.63 128.3 256.63C122.49 256.63 117.77 252.5 117.77 247.42C117.77 242.34 122.49 238.21 128.3 238.21C129.46 238.21 138.67 238.21 139.82 238.21C145.01 238.21 149.21 234.53 149.21 230C149.21 228.99 149.21 220.94 149.21 219.93C149.21 214.85 153.94 210.72 159.75 210.72C165.56 210.72 170.29 214.85 170.29 219.93C170.29 220.94 170.29 228.99 170.29 230C170.29 234.53 174.49 238.21 179.68 238.21C181.98 238.21 188.89 238.21 191.2 238.21C197.01 238.21 201.73 242.34 201.73 247.42Z" id="b3mKMFjKHR"></path><path d="M130.43 221.79C129.15 221.79 128.45 221.79 128.3 221.79C112.14 221.79 98.98 233.29 98.98 247.42C98.98 261.55 112.13 273.06 128.3 273.06C128.45 273.06 129.15 273.06 130.43 273.06C130.43 274.17 130.43 274.79 130.43 274.92C130.43 289.04 143.58 300.55 159.75 300.55C175.92 300.55 189.07 289.04 189.07 274.92C189.07 274.79 189.07 274.17 189.07 273.06C190.35 273.06 191.06 273.06 191.2 273.06C207.37 273.06 220.52 261.55 220.52 247.42C220.52 233.29 207.37 221.79 191.2 221.79C191.06 221.79 190.35 221.79 189.07 221.79C189.07 220.67 189.07 220.06 189.07 219.93C189.07 205.8 175.92 194.3 159.75 194.3C143.58 194.3 130.43 205.8 130.43 219.93C130.43 220.06 130.43 220.67 130.43 221.79ZM201.73 247.42C201.73 252.5 197.01 256.63 191.2 256.63C190.05 256.63 180.83 256.63 179.68 256.63C174.49 256.63 170.29 260.31 170.29 264.84C170.29 265.85 170.29 273.91 170.29 274.92C170.29 279.99 165.56 284.12 159.75 284.12C153.94 284.12 149.21 279.99 149.21 274.92C149.21 273.91 149.21 265.85 149.21 264.84C149.21 260.31 145.01 256.63 139.82 256.63C138.67 256.63 129.46 256.63 128.3 256.63C122.49 256.63 117.77 252.5 117.77 247.42C117.77 242.34 122.49 238.21 128.3 238.21C129.46 238.21 138.67 238.21 139.82 238.21C145.01 238.21 149.21 234.53 149.21 230C149.21 228.99 149.21 220.94 149.21 219.93C149.21 214.85 153.94 210.72 159.75 210.72C165.56 210.72 170.29 214.85 170.29 219.93C170.29 220.94 170.29 228.99 170.29 230C170.29 234.53 174.49 238.21 179.68 238.21C181.98 238.21 188.89 238.21 191.2 238.21C197.01 238.21 201.73 242.34 201.73 247.42Z" id="c4kue6jps4"></path><path d="M486.68 231.05C501.81 231.05 514.11 220.28 514.11 207.06C514.11 193.84 501.81 183.08 486.68 183.08C471.56 183.08 459.25 193.84 459.25 207.06C459.25 220.28 471.56 231.05 486.68 231.05ZM486.68 199.5C491.45 199.5 495.33 202.89 495.33 207.07C495.33 211.23 491.45 214.62 486.68 214.62C481.92 214.62 478.04 211.23 478.04 207.07C478.04 202.89 481.92 199.5 486.68 199.5Z" id="f4CzSgU2E"></path><path d="M486.68 231.05C501.81 231.05 514.11 220.28 514.11 207.06C514.11 193.84 501.81 183.08 486.68 183.08C471.56 183.08 459.25 193.84 459.25 207.06C459.25 220.28 471.56 231.05 486.68 231.05ZM486.68 199.5C491.45 199.5 495.33 202.89 495.33 207.07C495.33 211.23 491.45 214.62 486.68 214.62C481.92 214.62 478.04 211.23 478.04 207.07C478.04 202.89 481.92 199.5 486.68 199.5Z" id="b1lQR8UH0"></path><path d="M486.68 311.76C501.81 311.76 514.11 301 514.11 287.78C514.11 274.56 501.81 263.8 486.68 263.8C471.56 263.8 459.25 274.56 459.25 287.78C459.25 301 471.56 311.76 486.68 311.76ZM486.68 280.22C491.45 280.22 495.33 283.61 495.33 287.78C495.33 291.95 491.45 295.34 486.68 295.34C481.92 295.34 478.04 291.95 478.04 287.78C478.04 283.61 481.92 280.22 486.68 280.22Z" id="b25miIALM"></path><path d="M486.68 311.76C501.81 311.76 514.11 301 514.11 287.78C514.11 274.56 501.81 263.8 486.68 263.8C471.56 263.8 459.25 274.56 459.25 287.78C459.25 301 471.56 311.76 486.68 311.76ZM486.68 280.22C491.45 280.22 495.33 283.61 495.33 287.78C495.33 291.95 491.45 295.34 486.68 295.34C481.92 295.34 478.04 291.95 478.04 287.78C478.04 283.61 481.92 280.22 486.68 280.22Z" id="b5Zi50Jx2"></path><path d="M505.42 247.42C505.42 260.64 517.72 271.4 532.85 271.4C547.97 271.4 560.28 260.64 560.28 247.42C560.28 234.2 547.97 223.44 532.85 223.44C517.72 223.44 505.42 234.2 505.42 247.42ZM541.49 247.42C541.49 251.59 537.62 254.98 532.85 254.98C528.08 254.98 524.21 251.59 524.21 247.42C524.21 243.25 528.08 239.86 532.85 239.86C537.62 239.86 541.49 243.25 541.49 247.42Z" id="eTqGXfZCS"></path><path d="M505.42 247.42C505.42 260.64 517.72 271.4 532.85 271.4C547.97 271.4 560.28 260.64 560.28 247.42C560.28 234.2 547.97 223.44 532.85 223.44C517.72 223.44 505.42 234.2 505.42 247.42ZM541.49 247.42C541.49 251.59 537.62 254.98 532.85 254.98C528.08 254.98 524.21 251.59 524.21 247.42C524.21 243.25 528.08 239.86 532.85 239.86C537.62 239.86 541.49 243.25 541.49 247.42Z" id="amOiTuXMb"></path><path d="M467.95 247.42C467.95 234.2 455.64 223.44 440.52 223.44C425.39 223.44 413.09 234.2 413.09 247.42C413.09 260.64 425.39 271.4 440.52 271.4C455.64 271.4 467.95 260.64 467.95 247.42ZM431.87 247.42C431.87 243.25 435.75 239.86 440.52 239.86C445.28 239.86 449.16 243.25 449.16 247.42C449.16 251.59 445.28 254.98 440.52 254.98C435.75 254.98 431.87 251.59 431.87 247.42Z" id="c12SIt2JZc"></path><path d="M467.95 247.42C467.95 234.2 455.64 223.44 440.52 223.44C425.39 223.44 413.09 234.2 413.09 247.42C413.09 260.64 425.39 271.4 440.52 271.4C455.64 271.4 467.95 260.64 467.95 247.42ZM431.87 247.42C431.87 243.25 435.75 239.86 440.52 239.86C445.28 239.86 449.16 243.25 449.16 247.42C449.16 251.59 445.28 254.98 440.52 254.98C435.75 254.98 431.87 251.59 431.87 247.42Z" id="b1jNg6uBzZ"></path><path d="M301.66 271C301.66 266.47 297.45 262.8 292.27 262.8C289.45 262.8 266.96 262.8 264.15 262.8C258.96 262.8 254.76 266.47 254.76 271C254.76 275.54 258.96 279.22 264.15 279.22C269.77 279.22 286.64 279.22 292.27 279.22C297.45 279.22 301.66 275.54 301.66 271Z" id="c4txgqlzF"></path><path d="M301.66 271C301.66 266.47 297.45 262.8 292.27 262.8C289.45 262.8 266.96 262.8 264.15 262.8C258.96 262.8 254.76 266.47 254.76 271C254.76 275.54 258.96 279.22 264.15 279.22C269.77 279.22 286.64 279.22 292.27 279.22C297.45 279.22 301.66 275.54 301.66 271Z" id="e1Tx0YTFhZ"></path><path d="M338.34 271C338.34 275.54 342.55 279.22 347.74 279.22C350.55 279.22 373.04 279.22 375.85 279.22C381.04 279.22 385.24 275.54 385.24 271C385.24 266.47 381.04 262.8 375.85 262.8C370.23 262.8 350.55 262.8 347.74 262.8C342.55 262.8 338.34 266.47 338.34 271Z" id="b1FEqfM7kA"></path><path d="M338.34 271C338.34 275.54 342.55 279.22 347.74 279.22C350.55 279.22 373.04 279.22 375.85 279.22C381.04 279.22 385.24 275.54 385.24 271C385.24 266.47 381.04 262.8 375.85 262.8C370.23 262.8 350.55 262.8 347.74 262.8C342.55 262.8 338.34 266.47 338.34 271Z" id="b1EqAaKZhr"></path></defs><g><g><g><use xlink:href="#dBZg45cDB" opacity="1" fill="#ffffff" fill-opacity="1"></use><g><use xlink:href="#dBZg45cDB" opacity="1" fill-opacity="0" stroke="#000000" stroke-width="1" stroke-opacity="0"></use></g></g><g><use xlink:href="#jyHoRKYM2" opacity="1" fill="#ffffff" fill-opacity="1"></use><g><use xlink:href="#jyHoRKYM2" opacity="1" fill-opacity="0" stroke="#000000" stroke-width="1" stroke-opacity="0"></use></g></g><g><use xlink:href="#arLW1HO7O" opacity="1" fill="#ffffff" fill-opacity="1"></use><g><use xlink:href="#arLW1HO7O" opacity="1" fill-opacity="0" stroke="#000000" stroke-width="1" stroke-opacity="0"></use></g></g><g><use xlink:href="#aejdCAkxX" opacity="1" fill="#ffffff" fill-opacity="1"></use><g><use xlink:href="#aejdCAkxX" opacity="1" fill-opacity="0" stroke="#000000" stroke-width="1" stroke-opacity="0"></use></g></g><g><use xlink:href="#a2VpYFElnU" opacity="1" fill="#ffffff" fill-opacity="1"></use><g><use xlink:href="#a2VpYFElnU" opacity="1" fill-opacity="0" stroke="#000000" stroke-width="1" stroke-opacity="0"></use></g></g><g><use xlink:href="#afLtcT4Hy" opacity="1" fill="#ffffff" fill-opacity="1"></use><g><use xlink:href="#afLtcT4Hy" opacity="1" fill-opacity="0" stroke="#000000" stroke-width="1" stroke-opacity="0"></use></g></g><g><use xlink:href="#c1UZUC5vFA" opacity="1" fill="#ffffff" fill-opacity="1"></use><g><use xlink:href="#c1UZUC5vFA" opacity="1" fill-opacity="0" stroke="#000000" stroke-width="1" stroke-opacity="0"></use></g></g><g><use xlink:href="#b55brOa7t" opacity="1" fill="#ffffff" fill-opacity="1"></use><g><use xlink:href="#b55brOa7t" opacity="1" fill-opacity="0" stroke="#000000" stroke-width="1" stroke-opacity="0"></use></g></g><g><use xlink:href="#b3mKMFjKHR" opacity="1" fill="#ffffff" fill-opacity="1"></use><g><use xlink:href="#b3mKMFjKHR" opacity="1" fill-opacity="0" stroke="#000000" stroke-width="1" stroke-opacity="0"></use></g></g><g><use xlink:href="#c4kue6jps4" opacity="1" fill="#ffffff" fill-opacity="1"></use><g><use xlink:href="#c4kue6jps4" opacity="1" fill-opacity="0" stroke="#000000" stroke-width="1" stroke-opacity="0"></use></g></g><g><use xlink:href="#f4CzSgU2E" opacity="1" fill="#ffffff" fill-opacity="1"></use><g><use xlink:href="#f4CzSgU2E" opacity="1" fill-opacity="0" stroke="#000000" stroke-width="1" stroke-opacity="0"></use></g></g><g><use xlink:href="#b1lQR8UH0" opacity="1" fill="#ffffff" fill-opacity="1"></use><g><use xlink:href="#b1lQR8UH0" opacity="1" fill-opacity="0" stroke="#000000" stroke-width="1" stroke-opacity="0"></use></g></g><g><use xlink:href="#b25miIALM" opacity="1" fill="#ffffff" fill-opacity="1"></use><g><use xlink:href="#b25miIALM" opacity="1" fill-opacity="0" stroke="#000000" stroke-width="1" stroke-opacity="0"></use></g></g><g><use xlink:href="#b5Zi50Jx2" opacity="1" fill="#ffffff" fill-opacity="1"></use><g><use xlink:href="#b5Zi50Jx2" opacity="1" fill-opacity="0" stroke="#000000" stroke-width="1" stroke-opacity="0"></use></g></g><g><use xlink:href="#eTqGXfZCS" opacity="1" fill="#ffffff" fill-opacity="1"></use><g><use xlink:href="#eTqGXfZCS" opacity="1" fill-opacity="0" stroke="#000000" stroke-width="1" stroke-opacity="0"></use></g></g><g><use xlink:href="#amOiTuXMb" opacity="1" fill="#ffffff" fill-opacity="1"></use><g><use xlink:href="#amOiTuXMb" opacity="1" fill-opacity="0" stroke="#000000" stroke-width="1" stroke-opacity="0"></use></g></g><g><use xlink:href="#c12SIt2JZc" opacity="1" fill="#ffffff" fill-opacity="1"></use><g><use xlink:href="#c12SIt2JZc" opacity="1" fill-opacity="0" stroke="#000000" stroke-width="1" stroke-opacity="0"></use></g></g><g><use xlink:href="#b1jNg6uBzZ" opacity="1" fill="#ffffff" fill-opacity="1"></use><g><use xlink:href="#b1jNg6uBzZ" opacity="1" fill-opacity="0" stroke="#000000" stroke-width="1" stroke-opacity="0"></use></g></g><g><use xlink:href="#c4txgqlzF" opacity="1" fill="#ffffff" fill-opacity="1"></use><g><use xlink:href="#c4txgqlzF" opacity="1" fill-opacity="0" stroke="#000000" stroke-width="1" stroke-opacity="0"></use></g></g><g><use xlink:href="#e1Tx0YTFhZ" opacity="1" fill="#ffffff" fill-opacity="1"></use><g><use xlink:href="#e1Tx0YTFhZ" opacity="1" fill-opacity="0" stroke="#000000" stroke-width="1" stroke-opacity="0"></use></g></g><g><use xlink:href="#b1FEqfM7kA" opacity="1" fill="#ffffff" fill-opacity="1"></use><g><use xlink:href="#b1FEqfM7kA" opacity="1" fill-opacity="0" stroke="#000000" stroke-width="1" stroke-opacity="0"></use></g></g><g><use xlink:href="#b1EqAaKZhr" opacity="1" fill="#ffffff" fill-opacity="1"></use><g><use xlink:href="#b1EqAaKZhr" opacity="1" fill-opacity="0" stroke="#000000" stroke-width="1" stroke-opacity="0"></use></g></g></g></g></svg>