<?xml version="1.0" encoding="UTF-8" standalone="no"?>
<!DOCTYPE svg PUBLIC "-//W3C//DTD SVG 1.1//EN" "http://www.w3.org/Graphics/SVG/1.1/DTD/svg11.dtd">
<svg version="1.1" xmlns="http://www.w3.org/2000/svg" xmlns:xlink="http://www.w3.org/1999/xlink" preserveAspectRatio="xMidYMid meet" viewBox="0 0 640 640" width="50" height="50"><defs><path d="M623.49 110.52C615.37 89.02 602.86 69.76 586.48 53.76C570.47 37.51 551.09 24.88 529.83 16.88C509.45 9 486.19 3.5 452.18 2C417.91 0.38 407.03 0 320.12 0C233.22 0 222.34 0.38 188.2 1.88C154.19 3.37 130.8 8.88 110.55 16.75C89.03 24.88 69.78 37.38 53.77 53.76C37.51 69.76 24.89 89.14 16.88 110.4C9 130.78 3.5 154.03 2 188.04C0.38 222.3 0 233.17 0 320.06C0 406.96 0.38 417.83 1.88 451.96C3.38 485.97 8.88 509.35 16.76 529.61C24.89 551.11 37.51 570.36 53.77 586.37C69.78 602.62 89.16 615.25 110.42 623.25C130.8 631.13 154.06 636.63 188.08 638.12C222.21 639.63 233.09 640 320 640C406.91 640 417.79 639.63 451.93 638.12C485.94 636.63 509.32 631.13 529.58 623.25C572.6 606.62 606.61 572.61 623.25 529.61C631.12 509.23 636.62 485.97 638.12 451.96C639.62 417.83 640 406.96 640 320.06C640 233.17 639.87 222.3 638.37 188.16C636.87 154.16 631.37 130.78 623.49 110.52ZM569.72 508.85C558.97 536.73 536.83 558.86 508.95 569.61C497.69 573.99 480.69 579.24 449.55 580.61C415.79 582.12 405.66 582.49 320.25 582.49C234.84 582.49 224.59 582.12 190.95 580.61C159.69 579.24 142.8 573.99 131.55 569.61C117.67 564.49 105.04 556.36 94.79 545.73C84.16 535.36 76.03 522.85 70.9 508.98C66.52 497.73 61.27 480.72 59.9 449.59C58.4 415.83 58.03 405.71 58.03 320.31C58.03 234.92 58.4 224.67 59.9 191.04C61.27 159.78 66.52 142.9 70.9 131.65C76.03 117.77 84.16 105.15 94.91 94.89C105.29 84.26 117.79 76.14 131.68 71.02C142.93 66.64 159.94 61.39 191.08 60.01C224.84 58.51 234.97 58.14 320.37 58.14C405.91 58.14 416.04 58.51 449.68 60.01C480.94 61.39 497.82 66.64 509.08 71.02C522.95 76.14 535.58 84.26 545.84 94.89C556.47 105.27 564.59 117.77 569.72 131.65C574.1 142.9 579.35 159.9 580.73 191.04C582.23 224.8 582.6 234.92 582.6 320.31C582.6 405.71 582.23 415.71 580.73 449.46C579.35 480.72 574.1 497.6 569.72 508.85Z" id="b2cqvCQCd7"></path><path d="M155.69 320.06C155.69 410.83 229.34 484.47 320.12 484.47C410.91 484.47 484.56 410.83 484.56 320.06C484.56 229.29 410.91 155.66 320.12 155.66C229.34 155.66 155.69 229.29 155.69 320.06ZM213.46 320.06C213.46 261.17 261.23 213.42 320.12 213.42C379.02 213.42 426.79 261.17 426.79 320.06C426.79 378.95 379.02 426.71 320.12 426.71C261.23 426.71 213.46 378.95 213.46 320.06Z" id="b1evmU72xt"></path><path d="M491.07 187.54C469.87 187.54 452.68 170.35 452.68 149.16C452.68 127.96 469.87 110.77 491.07 110.77C512.27 110.77 529.46 127.96 529.46 149.16C529.46 170.35 512.27 187.54 491.07 187.54Z" id="a2psFCu5UE"></path></defs><g><g><g><use xlink:href="#b2cqvCQCd7" opacity="1" fill="#333333" fill-opacity="1"></use><g><use xlink:href="#b2cqvCQCd7" opacity="1" fill-opacity="0" stroke="#000000" stroke-width="1" stroke-opacity="0"></use></g></g><g><use xlink:href="#b1evmU72xt" opacity="1" fill="#333333" fill-opacity="1"></use><g><use xlink:href="#b1evmU72xt" opacity="1" fill-opacity="0" stroke="#000000" stroke-width="1" stroke-opacity="0"></use></g></g><g><use xlink:href="#a2psFCu5UE" opacity="1" fill="#333333" fill-opacity="1"></use><g><use xlink:href="#a2psFCu5UE" opacity="1" fill-opacity="0" stroke="#000000" stroke-width="1" stroke-opacity="0"></use></g></g></g></g></svg>