<?xml version="1.0" encoding="UTF-8" standalone="no"?>
<!DOCTYPE svg PUBLIC "-//W3C//DTD SVG 1.1//EN" "http://www.w3.org/Graphics/SVG/1.1/DTD/svg11.dtd">
<svg version="1.1" xmlns="http://www.w3.org/2000/svg" xmlns:xlink="http://www.w3.org/1999/xlink" preserveAspectRatio="xMidYMid meet" viewBox="0 0 640 640" width="150" height="150"><defs><path d="M13 0C5.82 0.01 0.01 5.82 0 13C0 63 0 463 0 513C0.01 520.18 5.82 525.99 13 526C50 526 346 526 383 526C390.18 525.99 395.99 520.18 396 513C396 463 396 63 396 13C395.99 5.82 390.18 0.01 383 0C383 0 50 0 13 0Z" id="cZuTomcOm"></path><path d="M24.43 16C19.42 16.08 15.43 20.21 15.5 25.21C15.5 72.77 15.5 453.23 15.5 500.79C15.43 505.79 19.42 509.92 24.43 510C59.14 510 336.86 510 371.57 510C376.58 509.92 380.57 505.79 380.5 500.79C380.5 453.23 380.5 72.77 380.5 25.21C380.57 20.21 376.58 16.08 371.57 16C302.14 16 93.86 16 24.43 16Z" id="c3zgAIsbss"></path><path d="M42.5 38C39.19 38 36.5 41.04 36.5 44.77C36.5 51.32 36.5 103.68 36.5 110.23C36.5 113.96 39.19 117 42.5 117C73.6 117 322.4 117 353.5 117C356.81 117 359.5 113.96 359.5 110.23C359.5 103.68 359.5 51.32 359.5 44.77C359.5 41.04 356.81 38 353.5 38C291.3 38 104.7 38 42.5 38Z" id="a2gBsQwFCq"></path><path d="M42.5 148.75C39.14 148.8 36.46 151.56 36.5 154.92C36.5 168.91 36.5 280.84 36.5 294.83C36.46 298.19 39.14 300.95 42.5 301C73.6 301 322.4 301 353.5 301C356.86 300.95 359.54 298.19 359.5 294.83C359.5 280.84 359.5 168.91 359.5 154.92C359.54 151.56 356.86 148.8 353.5 148.75C291.3 148.75 104.7 148.75 42.5 148.75Z" id="eZ2KXP7G2"></path><path d="M321 47.25C321 47.25 321 47.25 321 47.25C321 55.65 321 60.32 321 61.25C321 61.25 321 61.25 321 61.25C173.4 61.25 91.4 61.25 75 61.25C75 61.25 75 61.25 75 61.25C75 52.85 75 48.18 75 47.25C75 47.25 75 47.25 75 47.25C222.6 47.25 304.6 47.25 321 47.25Z" id="cYk2rRZZv"></path><path d="M321.5 76.75C321.5 76.75 321.5 76.75 321.5 76.75C321.5 80.65 321.5 82.82 321.5 83.25C321.5 83.25 321.5 83.25 321.5 83.25C173.9 83.25 91.9 83.25 75.5 83.25C75.5 83.25 75.5 83.25 75.5 83.25C75.5 79.35 75.5 77.18 75.5 76.75C75.5 76.75 75.5 76.75 75.5 76.75C223.1 76.75 305.1 76.75 321.5 76.75Z" id="agyxbLTF5"></path><path d="M321.5 88.25C321.5 88.25 321.5 88.25 321.5 88.25C321.5 92.15 321.5 94.32 321.5 94.75C321.5 94.75 321.5 94.75 321.5 94.75C173.9 94.75 91.9 94.75 75.5 94.75C75.5 94.75 75.5 94.75 75.5 94.75C75.5 90.85 75.5 88.68 75.5 88.25C75.5 88.25 75.5 88.25 75.5 88.25C223.1 88.25 305.1 88.25 321.5 88.25Z" id="cfFniC6UC"></path><path d="M321.5 99.75C321.5 99.75 321.5 99.75 321.5 99.75C321.5 103.65 321.5 105.82 321.5 106.25C321.5 106.25 321.5 106.25 321.5 106.25C173.9 106.25 91.9 106.25 75.5 106.25C75.5 106.25 75.5 106.25 75.5 106.25C75.5 102.35 75.5 100.18 75.5 99.75C75.5 99.75 75.5 99.75 75.5 99.75C223.1 99.75 305.1 99.75 321.5 99.75Z" id="e3zb1r9IZU"></path><path d="M221.16 301.25C289.09 301.25 326.83 301.25 334.37 301.25C336.39 301.25 338.02 299.62 338.02 297.61C338.02 296.64 337.63 295.71 336.95 295.03C329.71 287.78 271.74 229.82 264.49 222.57C263.07 221.15 260.76 221.15 259.34 222.57C257.54 224.37 243.12 238.79 241.32 240.59C238.34 243.58 233.5 243.58 230.51 240.59C230.51 240.59 230.51 240.59 230.51 240.59C224.87 234.95 179.72 189.8 174.08 184.16C172.65 182.73 170.35 182.73 168.92 184.16C157.89 195.19 69.59 283.49 58.55 294.53C57.13 295.95 57.13 298.26 58.55 299.68C59.23 300.37 60.16 300.75 61.13 300.75C71.81 300.75 125.2 300.75 221.31 300.75L221.16 301.25Z" id="f9eRxNsG1i"></path><path d="M86.5 167.75C78.77 167.75 72.5 174.02 72.5 181.75C72.5 189.48 78.77 195.75 86.5 195.75C94.23 195.75 100.5 189.48 100.5 181.75C100.5 174.02 94.23 167.75 86.5 167.75Z" id="mG2tEFNZL"></path><path d="M42.5 333.75C39.14 333.8 36.46 336.56 36.5 339.92C36.5 353.91 36.5 465.84 36.5 479.83C36.46 483.19 39.14 485.95 42.5 486C73.6 486 322.4 486 353.5 486C356.86 485.95 359.54 483.19 359.5 479.83C359.5 465.84 359.5 353.91 359.5 339.92C359.54 336.56 356.86 333.8 353.5 333.75C291.3 333.75 104.7 333.75 42.5 333.75Z" id="b5iA5kQMlc"></path><path d="M221.16 486.25C289.09 486.25 326.83 486.25 334.37 486.25C336.39 486.25 338.02 484.62 338.02 482.6C338.02 481.64 337.63 480.71 336.95 480.03C329.71 472.78 271.74 414.82 264.49 407.57C263.07 406.15 260.76 406.15 259.34 407.57C257.54 409.37 243.12 423.79 241.32 425.59C238.34 428.58 233.5 428.58 230.52 425.59C230.51 425.59 230.51 425.59 230.51 425.59C224.87 419.95 179.72 374.8 174.08 369.16C172.65 367.74 170.35 367.74 168.92 369.16C157.89 380.19 69.59 468.49 58.55 479.53C57.13 480.95 57.13 483.26 58.55 484.68C59.23 485.37 60.16 485.75 61.13 485.75C71.81 485.75 125.2 485.75 221.31 485.75L221.16 486.25Z" id="e2sP8pqpA2"></path><path d="M86.5 352.75C78.77 352.75 72.5 359.02 72.5 366.75C72.5 374.48 78.77 380.75 86.5 380.75C94.23 380.75 100.5 374.48 100.5 366.75C100.5 359.02 94.23 352.75 86.5 352.75Z" id="a2yid7HBWK"></path><path d="M143 115C138.03 115.01 134.01 119.03 134 124C134 174 134 574 134 624C134.01 628.97 138.03 632.99 143 633C180 633 476 633 513 633C517.97 632.99 521.99 628.97 522 624C522 574 522 174 522 124C521.99 119.03 517.97 115.01 513 115C439 115 217 115 143 115Z" id="bO0R8OHNv"></path><path d="M153.93 129C148.92 129.08 144.93 133.21 145 138.21C145 185.77 145 566.23 145 613.79C144.93 618.79 148.92 622.92 153.93 623C188.64 623 466.36 623 501.07 623C506.08 622.92 510.07 618.79 510 613.79C510 566.23 510 185.77 510 138.21C510.07 133.21 506.08 129.08 501.07 129C431.64 129 223.36 129 153.93 129Z" id="b1UVwrRrs1"></path><path d="M208.25 198.18C206.04 198.19 204.25 199.97 204.25 202.18C204.25 204.02 204.25 218.71 204.25 220.54C204.25 222.75 206.04 224.54 208.25 224.54C231.85 224.54 420.65 224.54 444.25 224.54C446.46 224.54 448.25 222.75 448.25 220.54C448.25 218.71 448.25 204.02 448.25 202.18C448.25 199.97 446.46 198.18 444.25 198.18C397.05 198.18 255.45 198.18 208.25 198.18Z" id="fNJ4SPF3b"></path><path d="M206.75 258.94C206.2 258.94 205.75 259.39 205.75 259.94C205.75 260.66 205.75 266.39 205.75 267.11C205.75 267.66 206.2 268.11 206.75 268.11C230.75 268.11 422.75 268.11 446.75 268.11C447.3 268.11 447.75 267.66 447.75 267.11C447.75 266.39 447.75 260.66 447.75 259.94C447.75 259.39 447.3 258.94 446.75 258.94C398.75 258.94 254.75 258.94 206.75 258.94Z" id="cuJaPLgjL"></path><path d="M206.75 282.23C206.2 282.23 205.75 282.68 205.75 283.23C205.75 283.95 205.75 289.68 205.75 290.4C205.75 290.95 206.2 291.4 206.75 291.4C230.75 291.4 422.75 291.4 446.75 291.4C447.3 291.4 447.75 290.95 447.75 290.4C447.75 289.68 447.75 283.95 447.75 283.23C447.75 282.68 447.3 282.23 446.75 282.23C398.75 282.23 254.75 282.23 206.75 282.23Z" id="b1e49wQHzQ"></path><path d="M206.75 305.53C206.2 305.53 205.75 305.98 205.75 306.53C205.75 307.25 205.75 312.98 205.75 313.7C205.75 314.25 206.2 314.69 206.75 314.7C230.75 314.7 422.75 314.7 446.75 314.7C447.3 314.69 447.75 314.25 447.75 313.7C447.75 312.98 447.75 307.25 447.75 306.53C447.75 305.98 447.3 305.53 446.75 305.53C398.75 305.53 254.75 305.53 206.75 305.53Z" id="c166QmTiGB"></path><path d="M206.25 352.06C205.7 352.06 205.25 352.51 205.25 353.06C205.25 353.78 205.25 359.51 205.25 360.23C205.25 360.78 205.7 361.23 206.25 361.23C230.25 361.23 422.25 361.23 446.25 361.23C446.8 361.23 447.25 360.78 447.25 360.23C447.25 359.51 447.25 353.78 447.25 353.06C447.25 352.51 446.8 352.06 446.25 352.06C398.25 352.06 254.25 352.06 206.25 352.06Z" id="c3bmFI707x"></path><path d="M206.25 375.36C205.7 375.36 205.25 375.8 205.25 376.36C205.25 377.07 205.25 382.81 205.25 383.52C205.25 384.07 205.7 384.52 206.25 384.52C230.25 384.52 422.25 384.52 446.25 384.52C446.8 384.52 447.25 384.07 447.25 383.52C447.25 382.81 447.25 377.07 447.25 376.36C447.25 375.8 446.8 375.36 446.25 375.36C398.25 375.36 254.25 375.36 206.25 375.36Z" id="f1dCMf3VDe"></path><path d="M206.25 398.65C205.7 398.65 205.25 399.1 205.25 399.65C205.25 400.37 205.25 406.1 205.25 406.82C205.25 407.37 205.7 407.82 206.25 407.82C230.25 407.82 422.25 407.82 446.25 407.82C446.8 407.82 447.25 407.37 447.25 406.82C447.25 406.1 447.25 400.37 447.25 399.65C447.25 399.1 446.8 398.65 446.25 398.65C398.25 398.65 254.25 398.65 206.25 398.65Z" id="dmLvIO37Z"></path><path d="M206.25 422.06C205.7 422.06 205.25 422.51 205.25 423.06C205.25 423.78 205.25 429.51 205.25 430.23C205.25 430.78 205.7 431.23 206.25 431.23C230.25 431.23 422.25 431.23 446.25 431.23C446.8 431.23 447.25 430.78 447.25 430.23C447.25 429.51 447.25 423.78 447.25 423.06C447.25 422.51 446.8 422.06 446.25 422.06C398.25 422.06 254.25 422.06 206.25 422.06Z" id="hzeMX04zQ"></path><path d="M206.25 445.36C205.7 445.36 205.25 445.8 205.25 446.36C205.25 447.07 205.25 452.81 205.25 453.52C205.25 454.07 205.7 454.52 206.25 454.52C230.25 454.52 422.25 454.52 446.25 454.52C446.8 454.52 447.25 454.07 447.25 453.52C447.25 452.81 447.25 447.07 447.25 446.36C447.25 445.8 446.8 445.36 446.25 445.36C398.25 445.36 254.25 445.36 206.25 445.36Z" id="gJ52HKieK"></path><path d="M206.25 468.65C205.7 468.65 205.25 469.1 205.25 469.65C205.25 470.37 205.25 476.1 205.25 476.82C205.25 477.37 205.7 477.82 206.25 477.82C230.25 477.82 422.25 477.82 446.25 477.82C446.8 477.82 447.25 477.37 447.25 476.82C447.25 476.1 447.25 470.37 447.25 469.65C447.25 469.1 446.8 468.65 446.25 468.65C398.25 468.65 254.25 468.65 206.25 468.65Z" id="a689Ss4b2k"></path><path d="M206.25 492.06C205.7 492.06 205.25 492.51 205.25 493.06C205.25 493.78 205.25 499.51 205.25 500.23C205.25 500.78 205.7 501.23 206.25 501.23C230.25 501.23 422.25 501.23 446.25 501.23C446.8 501.23 447.25 500.78 447.25 500.23C447.25 499.51 447.25 493.78 447.25 493.06C447.25 492.51 446.8 492.06 446.25 492.06C398.25 492.06 254.25 492.06 206.25 492.06Z" id="a18eo0g98q"></path><path d="M206.25 515.36C205.7 515.36 205.25 515.8 205.25 516.36C205.25 517.07 205.25 522.81 205.25 523.52C205.25 524.07 205.7 524.52 206.25 524.52C230.25 524.52 422.25 524.52 446.25 524.52C446.8 524.52 447.25 524.07 447.25 523.52C447.25 522.81 447.25 517.07 447.25 516.36C447.25 515.8 446.8 515.36 446.25 515.36C398.25 515.36 254.25 515.36 206.25 515.36Z" id="h5zrvquI77"></path><path d="M206.25 538.65C205.7 538.65 205.25 539.1 205.25 539.65C205.25 540.37 205.25 546.1 205.25 546.82C205.25 547.37 205.7 547.82 206.25 547.82C230.25 547.82 422.25 547.82 446.25 547.82C446.8 547.82 447.25 547.37 447.25 546.82C447.25 546.1 447.25 540.37 447.25 539.65C447.25 539.1 446.8 538.65 446.25 538.65C398.25 538.65 254.25 538.65 206.25 538.65Z" id="aqARe8ALu"></path><path d="M522 494C481.68 494 449 526.68 449 567C449 607.32 481.68 640 522 640C562.32 640 595 607.32 595 567C595 526.68 562.32 494 522 494Z" id="a19NRxYMui"></path><path d="M487.16 572.13L499.86 562.24L510.21 575.54L545.16 538.65L556.84 549.72L509.01 600.22L509.01 600.22L487.16 572.13Z" id="c17TOmdmm4"></path></defs><g><g><g><use xlink:href="#cZuTomcOm" opacity="1" fill="#333333" fill-opacity="1"></use><g><use xlink:href="#cZuTomcOm" opacity="1" fill-opacity="0" stroke="#000000" stroke-width="1" stroke-opacity="0"></use></g></g><g><use xlink:href="#c3zgAIsbss" opacity="1" fill="#ffffff" fill-opacity="1"></use><g><use xlink:href="#c3zgAIsbss" opacity="1" fill-opacity="0" stroke="#000000" stroke-width="1" stroke-opacity="0"></use></g></g><g><use xlink:href="#a2gBsQwFCq" opacity="1" fill="#333333" fill-opacity="1"></use><g><use xlink:href="#a2gBsQwFCq" opacity="1" fill-opacity="0" stroke="#000000" stroke-width="1" stroke-opacity="0"></use></g></g><g><use xlink:href="#eZ2KXP7G2" opacity="1" fill="#333333" fill-opacity="1"></use><g><use xlink:href="#eZ2KXP7G2" opacity="1" fill-opacity="0" stroke="#000000" stroke-width="1" stroke-opacity="0"></use></g></g><g><use xlink:href="#cYk2rRZZv" opacity="1" fill="#ffffff" fill-opacity="1"></use><g><use xlink:href="#cYk2rRZZv" opacity="1" fill-opacity="0" stroke="#000000" stroke-width="1" stroke-opacity="0"></use></g></g><g><use xlink:href="#agyxbLTF5" opacity="1" fill="#ffffff" fill-opacity="1"></use><g><use xlink:href="#agyxbLTF5" opacity="1" fill-opacity="0" stroke="#000000" stroke-width="1" stroke-opacity="0"></use></g></g><g><use xlink:href="#cfFniC6UC" opacity="1" fill="#ffffff" fill-opacity="1"></use><g><use xlink:href="#cfFniC6UC" opacity="1" fill-opacity="0" stroke="#000000" stroke-width="1" stroke-opacity="0"></use></g></g><g><use xlink:href="#e3zb1r9IZU" opacity="1" fill="#ffffff" fill-opacity="1"></use><g><use xlink:href="#e3zb1r9IZU" opacity="1" fill-opacity="0" stroke="#000000" stroke-width="1" stroke-opacity="0"></use></g></g><g><use xlink:href="#f9eRxNsG1i" opacity="1" fill="#ffffff" fill-opacity="1"></use><g><use xlink:href="#f9eRxNsG1i" opacity="1" fill-opacity="0" stroke="#000000" stroke-width="1" stroke-opacity="0"></use></g></g><g><use xlink:href="#mG2tEFNZL" opacity="1" fill="#ffffff" fill-opacity="1"></use><g><use xlink:href="#mG2tEFNZL" opacity="1" fill-opacity="0" stroke="#000000" stroke-width="1" stroke-opacity="0"></use></g></g><g><use xlink:href="#b5iA5kQMlc" opacity="1" fill="#333333" fill-opacity="1"></use><g><use xlink:href="#b5iA5kQMlc" opacity="1" fill-opacity="0" stroke="#000000" stroke-width="1" stroke-opacity="0"></use></g></g><g><use xlink:href="#e2sP8pqpA2" opacity="1" fill="#ffffff" fill-opacity="1"></use><g><use xlink:href="#e2sP8pqpA2" opacity="1" fill-opacity="0" stroke="#000000" stroke-width="1" stroke-opacity="0"></use></g></g><g><use xlink:href="#a2yid7HBWK" opacity="1" fill="#ffffff" fill-opacity="1"></use><g><use xlink:href="#a2yid7HBWK" opacity="1" fill-opacity="0" stroke="#000000" stroke-width="1" stroke-opacity="0"></use></g></g><g><use xlink:href="#bO0R8OHNv" opacity="1" fill="#333333" fill-opacity="1"></use><g><use xlink:href="#bO0R8OHNv" opacity="1" fill-opacity="0" stroke="#000000" stroke-width="1" stroke-opacity="0"></use></g></g><g><use xlink:href="#b1UVwrRrs1" opacity="1" fill="#ffffff" fill-opacity="1"></use><g><use xlink:href="#b1UVwrRrs1" opacity="1" fill-opacity="0" stroke="#000000" stroke-width="1" stroke-opacity="0"></use></g></g><g><use xlink:href="#fNJ4SPF3b" opacity="1" fill="#15b374" fill-opacity="1"></use><g><use xlink:href="#fNJ4SPF3b" opacity="1" fill-opacity="0" stroke="#000000" stroke-width="1" stroke-opacity="0"></use></g></g><g><use xlink:href="#cuJaPLgjL" opacity="1" fill="#333333" fill-opacity="1"></use><g><use xlink:href="#cuJaPLgjL" opacity="1" fill-opacity="0" stroke="#000000" stroke-width="1" stroke-opacity="0"></use></g></g><g><use xlink:href="#b1e49wQHzQ" opacity="1" fill="#333333" fill-opacity="1"></use><g><use xlink:href="#b1e49wQHzQ" opacity="1" fill-opacity="0" stroke="#000000" stroke-width="1" stroke-opacity="0"></use></g></g><g><use xlink:href="#c166QmTiGB" opacity="1" fill="#333333" fill-opacity="1"></use><g><use xlink:href="#c166QmTiGB" opacity="1" fill-opacity="0" stroke="#000000" stroke-width="1" stroke-opacity="0"></use></g></g><g><use xlink:href="#c3bmFI707x" opacity="1" fill="#333333" fill-opacity="1"></use><g><use xlink:href="#c3bmFI707x" opacity="1" fill-opacity="0" stroke="#000000" stroke-width="1" stroke-opacity="0"></use></g></g><g><use xlink:href="#f1dCMf3VDe" opacity="1" fill="#333333" fill-opacity="1"></use><g><use xlink:href="#f1dCMf3VDe" opacity="1" fill-opacity="0" stroke="#000000" stroke-width="1" stroke-opacity="0"></use></g></g><g><use xlink:href="#dmLvIO37Z" opacity="1" fill="#333333" fill-opacity="1"></use><g><use xlink:href="#dmLvIO37Z" opacity="1" fill-opacity="0" stroke="#000000" stroke-width="1" stroke-opacity="0"></use></g></g><g><use xlink:href="#hzeMX04zQ" opacity="1" fill="#333333" fill-opacity="1"></use><g><use xlink:href="#hzeMX04zQ" opacity="1" fill-opacity="0" stroke="#000000" stroke-width="1" stroke-opacity="0"></use></g></g><g><use xlink:href="#gJ52HKieK" opacity="1" fill="#333333" fill-opacity="1"></use><g><use xlink:href="#gJ52HKieK" opacity="1" fill-opacity="0" stroke="#000000" stroke-width="1" stroke-opacity="0"></use></g></g><g><use xlink:href="#a689Ss4b2k" opacity="1" fill="#333333" fill-opacity="1"></use><g><use xlink:href="#a689Ss4b2k" opacity="1" fill-opacity="0" stroke="#000000" stroke-width="1" stroke-opacity="0"></use></g></g><g><use xlink:href="#a18eo0g98q" opacity="1" fill="#333333" fill-opacity="1"></use><g><use xlink:href="#a18eo0g98q" opacity="1" fill-opacity="0" stroke="#000000" stroke-width="1" stroke-opacity="0"></use></g></g><g><use xlink:href="#h5zrvquI77" opacity="1" fill="#333333" fill-opacity="1"></use><g><use xlink:href="#h5zrvquI77" opacity="1" fill-opacity="0" stroke="#000000" stroke-width="1" stroke-opacity="0"></use></g></g><g><use xlink:href="#aqARe8ALu" opacity="1" fill="#333333" fill-opacity="1"></use><g><use xlink:href="#aqARe8ALu" opacity="1" fill-opacity="0" stroke="#000000" stroke-width="1" stroke-opacity="0"></use></g></g><g><use xlink:href="#a19NRxYMui" opacity="1" fill="#15b374" fill-opacity="1"></use><g><use xlink:href="#a19NRxYMui" opacity="1" fill-opacity="0" stroke="#000000" stroke-width="1" stroke-opacity="0"></use></g></g><g><use xlink:href="#c17TOmdmm4" opacity="1" fill="#ffffff" fill-opacity="1"></use><g><use xlink:href="#c17TOmdmm4" opacity="1" fill-opacity="0" stroke="#000000" stroke-width="1" stroke-opacity="0"></use></g></g></g></g></svg>