<?xml version="1.0" encoding="UTF-8" standalone="no"?>
<!DOCTYPE svg PUBLIC "-//W3C//DTD SVG 1.1//EN" "http://www.w3.org/Graphics/SVG/1.1/DTD/svg11.dtd">
<svg version="1.1" xmlns="http://www.w3.org/2000/svg" xmlns:xlink="http://www.w3.org/1999/xlink" preserveAspectRatio="xMidYMid meet" viewBox="0 0 640 640" width="150" height="150"><defs><path d="M64 512C28.65 512 0 540.65 0 576C0 611.35 28.65 640 64 640C99.35 640 128 611.35 128 576C128 540.65 99.35 512 64 512Z" id="dhQm1JXvh"></path><path d="M320 512C284.65 512 256 540.65 256 576C256 611.35 284.65 640 320 640C355.35 640 384 611.35 384 576C384 540.65 355.35 512 320 512Z" id="b685hoiwK"></path><path d="M576 512C540.65 512 512 540.65 512 576C512 611.35 540.65 640 576 640C611.35 640 640 611.35 640 576C640 540.65 611.35 512 576 512Z" id="d4rK4LhpQm"></path></defs><g><g><g><use xlink:href="#dhQm1JXvh" opacity="1" fill="#333333" fill-opacity="1"></use><g><use xlink:href="#dhQm1JXvh" opacity="1" fill-opacity="0" stroke="#000000" stroke-width="1" stroke-opacity="0"></use></g></g><g><use xlink:href="#b685hoiwK" opacity="1" fill="#333333" fill-opacity="1"></use><g><use xlink:href="#b685hoiwK" opacity="1" fill-opacity="0" stroke="#000000" stroke-width="1" stroke-opacity="0"></use></g></g><g><use xlink:href="#d4rK4LhpQm" opacity="1" fill="#333333" fill-opacity="1"></use><g><use xlink:href="#d4rK4LhpQm" opacity="1" fill-opacity="0" stroke="#000000" stroke-width="1" stroke-opacity="0"></use></g></g></g></g></svg>