<?xml version="1.0" encoding="UTF-8" standalone="no"?>
<!DOCTYPE svg PUBLIC "-//W3C//DTD SVG 1.1//EN" "http://www.w3.org/Graphics/SVG/1.1/DTD/svg11.dtd">
<svg version="1.1" xmlns="http://www.w3.org/2000/svg" xmlns:xlink="http://www.w3.org/1999/xlink" preserveAspectRatio="xMidYMid meet" viewBox="0 0 640 640" width="150" height="150"><defs><path d="M544.96 48.26C510.01 14.48 446.82 0 365.99 0C342.53 0 154.86 0 131.4 0C114.88 0 100.81 10.19 98.22 24.02C88.45 76.54 10.31 496.73 0.54 549.26C-1.4 559.61 8.06 568.99 20.44 568.99C30.1 568.99 78.37 568.99 165.27 568.99L201.64 373.39C200.97 377.07 200.59 379.11 200.51 379.52C203.11 365.69 217.05 355.49 233.57 355.49C240.45 355.49 295.51 355.49 302.39 355.49C437.59 355.49 543.46 308.94 574.38 174.25C575.3 170.27 576.09 166.39 576.78 162.6C572.88 160.85 572.88 160.85 576.78 162.6C585.99 112.82 576.72 78.94 544.96 48.26" id="eu40TxCm"></path><path d="M269.74 142.25C288.13 142.25 435.26 142.25 453.65 142.25C475.43 142.25 495.74 143.45 514.31 145.98C519.5 146.68 524.67 147.52 529.8 148.49C537.08 149.85 544.27 151.52 551.35 153.49C560.47 156.07 568.97 159.08 576.78 162.6C585.99 112.8 576.72 78.94 544.96 48.26C509.99 14.48 446.82 0 365.99 0C342.53 0 154.84 0 131.38 0C114.86 0 100.81 10.2 98.22 24.02C88.45 76.54 10.31 496.72 0.54 549.24C-1.4 559.61 8.06 568.98 20.42 568.98C30.08 568.98 78.36 568.98 165.27 568.98C210.55 325.55 235.7 190.31 240.73 163.26C242.24 155.16 248.34 148.21 257.06 144.67C261.02 143.07 265.35 142.24 269.74 142.25Z" id="a1vEe7QFLp"></path><path d="M302.39 355.49C295.51 355.49 240.43 355.49 233.55 355.49C217.03 355.49 203.08 365.69 200.52 379.52C195.99 403.84 159.79 598.4 155.27 622.72C153.58 631.79 161.84 640 172.66 640C184.87 640 282.54 640 294.75 640C309.2 640 321.5 631.09 323.75 618.99C323.83 618.64 324.23 616.88 324.94 613.71L347.95 490.07C348.84 485.97 349.34 483.7 349.43 483.24C351.69 471.14 363.99 462.23 378.44 462.23C380.26 462.23 394.88 462.23 396.71 462.23C514.98 462.23 607.58 421.49 634.64 303.68C645.94 254.44 640.09 213.34 610.21 184.47C601.15 175.72 589.89 168.5 576.78 162.6C576.07 166.41 575.3 170.27 574.38 174.25C543.46 308.92 437.59 355.49 302.39 355.49Z" id="enME6yfUR"></path><path d="M544.42 151.66C539.6 150.47 534.73 149.41 529.82 148.49C524.69 147.54 519.52 146.7 514.33 146C495.75 143.45 475.45 142.24 453.65 142.24C435.26 142.24 288.15 142.24 269.76 142.24C265.37 142.23 261.03 143.07 257.08 144.69C248.35 148.22 242.24 155.17 240.75 163.27C238.14 177.28 225.12 247.32 201.66 373.39C200.99 377.07 200.61 379.11 200.53 379.52C203.11 365.69 217.05 355.49 233.57 355.49C240.46 355.49 295.53 355.49 302.41 355.49C437.61 355.49 543.48 308.94 574.4 174.25C575.32 170.27 576.09 166.41 576.8 162.6C568.97 159.1 560.5 156.07 551.37 153.5C549.07 152.85 546.75 152.24 544.42 151.66" id="d1b5tx1S9I"></path></defs><g><g><g><use xlink:href="#eu40TxCm" opacity="1" fill="#27346a" fill-opacity="1"></use><g><use xlink:href="#eu40TxCm" opacity="1" fill-opacity="0" stroke="#000000" stroke-width="1" stroke-opacity="0"></use></g></g><g><use xlink:href="#a1vEe7QFLp" opacity="1" fill="#ffffff" fill-opacity="1"></use><g><use xlink:href="#a1vEe7QFLp" opacity="1" fill-opacity="0" stroke="#000000" stroke-width="1" stroke-opacity="0"></use></g></g><g><use xlink:href="#enME6yfUR" opacity="1" fill="#adadad" fill-opacity="1"></use><g><use xlink:href="#enME6yfUR" opacity="1" fill-opacity="0" stroke="#000000" stroke-width="1" stroke-opacity="0"></use></g></g><g><use xlink:href="#d1b5tx1S9I" opacity="1" fill="#d4d4d4" fill-opacity="1"></use><g><use xlink:href="#d1b5tx1S9I" opacity="1" fill-opacity="0" stroke="#000000" stroke-width="1" stroke-opacity="0"></use></g></g></g></g></svg>