<?xml version="1.0" encoding="UTF-8" standalone="no"?>
<!DOCTYPE svg PUBLIC "-//W3C//DTD SVG 1.1//EN" "http://www.w3.org/Graphics/SVG/1.1/DTD/svg11.dtd">
<svg version="1.1" xmlns="http://www.w3.org/2000/svg" xmlns:xlink="http://www.w3.org/1999/xlink" preserveAspectRatio="xMidYMid meet" viewBox="0 0 640 640" width="150" height="150"><defs><path d="M48.3 545.03C101.26 567.74 159.03 573.94 215.2 561.55C218.41 561.55 221.62 559.48 223.22 559.48C223.22 554.8 223.22 531.41 223.22 489.29C190.49 502.92 172.3 510.49 168.66 512C147.8 520.26 126.94 522.32 106.08 516.13C90.03 509.94 93.24 497.55 112.49 487.23C119.88 483.92 156.79 467.41 223.22 437.68L223.22 361.29C130.79 402.17 79.44 424.88 69.17 429.42C49.91 437.68 30.65 450.06 13 466.58C-11.07 487.23 -3.05 526.45 48.3 545.03ZM385.3 357.16C451.1 398.45 502.45 357.16 502.45 249.81C502.45 140.39 471.96 90.84 383.7 51.61C337.16 30.97 289.02 12.39 240.87 0C240.87 39.78 240.87 238.66 240.87 596.65L353.21 640C353.21 338.99 353.21 171.77 353.21 138.32C353.21 115.61 353.21 99.1 366.05 105.29C383.7 111.48 385.3 134.19 385.3 156.9C385.3 196.95 385.3 337.14 385.3 357.16ZM449.49 396.39C423.82 398.45 399.75 406.71 377.28 417.03C376.96 417.17 375.35 417.86 372.46 419.1L372.46 499.61C435.05 469.88 469.82 453.37 476.77 450.06C497.64 441.81 518.5 439.74 539.36 445.94C555.41 452.13 552.2 464.52 532.94 474.84C522.24 479.93 468.75 505.39 372.46 551.23L372.46 629.68C505.34 566.5 579.16 531.41 593.92 524.39C609.97 516.13 624.41 505.81 637.25 489.29C648.48 468.65 643.67 439.74 593.92 419.1C547.38 398.45 497.64 390.19 449.49 396.39Z" id="d4tfNugM6x"></path></defs><g><g><g><use xlink:href="#d4tfNugM6x" opacity="1" fill="#333333" fill-opacity="1"></use><g><use xlink:href="#d4tfNugM6x" opacity="1" fill-opacity="0" stroke="#000000" stroke-width="1" stroke-opacity="0"></use></g></g></g></g></svg>