<?xml version="1.0" encoding="UTF-8" standalone="no"?>
<!DOCTYPE svg PUBLIC "-//W3C//DTD SVG 1.1//EN" "http://www.w3.org/Graphics/SVG/1.1/DTD/svg11.dtd">
<svg version="1.1" xmlns="http://www.w3.org/2000/svg" xmlns:xlink="http://www.w3.org/1999/xlink" preserveAspectRatio="xMidYMid meet" viewBox="0 0 640 640" width="150" height="150"><defs><path d="M304.24 227.86C230.11 241.01 163.18 260.4 111.05 282.22C119.06 282.4 125 284.27 128.6 287.94C131.42 290.81 132.85 294.76 132.85 299.68C132.85 300.01 132.85 301.69 132.85 304.72L115.54 304.72C115.54 302.05 115.54 300.56 115.54 300.27C115.54 296.55 113.35 294.25 109.48 294.25C106.23 294.25 104.22 295.75 103.57 298.7C103.36 299.86 103.38 301.06 103.64 302.21C105.5 309.92 131.2 314.71 133.99 328.94C134.36 330.77 134.86 334.69 134.07 340.29C132.47 351.77 122.57 356.19 109.97 356.19C92.37 356.19 85.23 347.71 85.23 336.01C85.23 335.64 85.23 333.8 85.24 330.48L103.79 330.48C103.8 334.61 103.8 336.91 103.8 337.37C103.8 341.25 106.57 343.38 110.34 343.38C113.91 343.38 115.99 341.92 116.71 338.93C117.05 337.55 117.19 335.52 116.59 333.97C113.15 325.2 89.15 321.1 86.2 306.92C85.54 303.74 85.48 301.02 86.03 297.59C86.31 295.89 86.83 294.24 87.57 292.69C29.75 320.22 -4.07 350.52 0.39 376.68C9.11 427.57 159.24 443.43 335.76 412.13C413.35 398.38 483.11 377.79 536.2 354.72C535.43 354.76 534.68 354.85 533.89 354.85C521.81 354.85 511.02 350.24 509.9 337.66C509.7 335.37 509.67 334.42 509.66 333.11C509.66 330.22 509.67 307.09 509.67 304.2C509.67 302.96 509.81 300.77 509.95 299.64C511.38 287.49 520.81 282.48 533.89 282.48C544.01 282.48 556.42 285.43 557.79 299.65C557.97 301.43 557.95 303.34 557.95 303.97C557.95 304.15 557.95 305.06 557.95 306.7L540.47 306.7C540.47 304.25 540.47 302.89 540.47 302.62C540.47 302.54 540.44 301.01 540.25 300.06C539.96 298.61 538.75 295.25 533.77 295.25C528.85 295.25 527.58 298.62 527.26 300.07C527.08 300.86 526.99 302 526.99 303.27C526.99 306.41 526.99 331.54 526.99 334.69C526.97 335.78 527.03 336.63 527.14 337.26C527.22 337.75 528.1 342.08 533.83 342.08C539.51 342.08 540.39 337.75 540.47 337.26C540.62 336.41 540.64 335.39 540.64 334.69C540.64 334.04 540.64 330.79 540.64 324.95L533.76 324.95L533.76 314.47L558.08 314.47C558.08 325.66 558.08 331.87 558.08 333.12C558.07 334.39 558.06 335.32 557.85 337.66C557.55 340.96 556.53 343.75 554.93 346.14C611.23 318.91 644.02 289.11 639.6 263.33C630.9 212.45 480.76 196.57 304.24 227.86ZM173.05 292.24L172.73 292.24L163.64 353.51L144.98 353.51L157.53 284.32L187.99 284.32L200.46 353.51L181.9 353.51L173.05 292.24ZM271.26 293.42L270.96 293.42L259.98 353.51L242.46 353.51L231.53 293.42L231.22 293.42L230.82 353.51L213.47 353.51L214.97 284.32L242.89 284.32L251.02 335.71L251.42 335.71L259.57 284.32L287.47 284.32L288.97 353.51L271.67 353.51L271.26 293.42ZM329.53 355.85C314.4 355.85 305.04 349.26 305.04 335.86C305.04 335.49 305.04 333.67 305.05 330.39L323.38 330.39C323.39 334.48 323.39 336.75 323.39 337.2C323.39 340.9 325.95 343.16 329.9 343.16C333.43 343.16 335.5 341.72 336.21 338.76C336.54 337.38 336.68 335.37 336.1 333.85C332.72 325.24 308.9 321.03 306.01 307.07C305.35 303.9 305.3 301.21 305.84 297.82C307.86 285.16 319.79 282.53 329.39 282.53C337.98 282.53 344.23 284.44 347.98 288.26C350.77 291.11 352.19 295.02 352.19 299.89C352.19 300.22 352.19 301.88 352.19 304.88L335.04 304.88C335.04 302.24 335.04 300.77 335.04 300.47C335.04 296.7 332.75 294.52 329.05 294.52C325.77 294.52 323.79 296 323.14 298.92C322.93 300.08 322.96 301.26 323.22 302.4C325.06 310.08 350.54 314.77 353.32 328.86C353.68 330.66 354.18 334.52 353.4 340.1C351.54 353.5 338.64 355.85 329.53 355.85ZM416.73 338.37C415.68 349.77 407.67 355.56 392.99 355.56C378.25 355.56 370.23 349.77 369.19 338.37C369.07 336.86 369.02 335.34 369.02 333.83C369.02 330.52 369.02 314.02 369.02 284.3L386.56 284.3C386.56 314.95 386.56 331.98 386.56 335.39C386.54 336.53 386.6 337.37 386.71 337.96C386.93 339.1 388.04 342.78 392.99 342.78C397.92 342.78 399.03 339.09 399.26 337.97C399.36 337.37 399.42 336.48 399.42 335.38C399.42 331.98 399.42 314.95 399.42 284.3L416.9 284.3L416.9 333.81C416.83 336.41 416.77 337.93 416.73 338.37ZM468.05 352.8L451.67 298L451.4 298L452.31 352.8L435.3 352.8L435.3 284.32L460.72 284.32L475.87 336.96L476.22 336.96L475.32 284.32L492.46 284.32L492.46 352.8L468.05 352.8Z" id="gw4oaG4Mi"></path></defs><g><g><g><use xlink:href="#gw4oaG4Mi" opacity="1" fill="#333333" fill-opacity="1"></use><g><use xlink:href="#gw4oaG4Mi" opacity="1" fill-opacity="0" stroke="#000000" stroke-width="1" stroke-opacity="0"></use></g></g></g></g></svg>