<?xml version="1.0" encoding="UTF-8" standalone="no"?>
<!DOCTYPE svg PUBLIC "-//W3C//DTD SVG 1.1//EN" "http://www.w3.org/Graphics/SVG/1.1/DTD/svg11.dtd">
<svg version="1.1" xmlns="http://www.w3.org/2000/svg" xmlns:xlink="http://www.w3.org/1999/xlink" preserveAspectRatio="xMidYMid meet" viewBox="0 0 640 640" width="75" height="75"><defs><path d="M392.53 312.52C405.97 299.08 413.43 291.61 414.93 290.12C417.91 287.13 417.91 282.29 414.93 279.3C414.93 279.3 414.93 279.3 414.93 279.3C414.48 278.85 412.24 276.61 408.21 272.59L548.42 132.37C569.72 124.81 581.56 120.61 583.92 119.77C585.63 119.17 587.06 117.98 587.97 116.42C592.19 109.21 625.91 51.53 630.13 44.31C631.88 41.31 631.39 37.5 628.93 35.05C626.54 32.65 607.37 13.48 604.98 11.09C602.52 8.63 598.71 8.14 595.71 9.89C588.5 14.11 530.82 47.84 523.61 52.05C522.05 52.97 520.87 54.4 520.26 56.1C519.42 58.47 515.23 70.3 507.67 91.6L367.45 231.82C363.43 227.8 361.19 225.56 360.74 225.11C357.75 222.12 352.91 222.12 349.92 225.11C349.92 225.11 349.92 225.11 349.92 225.11C348.43 226.6 340.96 234.07 327.53 247.51C301.26 221.24 286.67 206.65 283.75 203.73C314.81 128.43 278.96 42.21 203.67 11.15C170.87 -2.39 134.29 -3.64 100.64 7.62C96.64 8.96 94.47 13.29 95.81 17.3C96.19 18.42 96.82 19.44 97.66 20.28C101.24 23.87 119.17 41.8 151.44 74.07L138.63 137.92L72.28 149.65C41.17 118.32 23.89 100.92 20.43 97.44C17.45 94.43 12.59 94.42 9.59 97.41C8.75 98.25 8.11 99.27 7.73 100.39C-18.23 177.59 23.3 261.22 100.49 287.18C134.2 298.52 170.88 297.3 203.75 283.73C205.49 285.46 214.17 294.15 229.8 309.77C212.44 319.27 202.79 324.55 200.86 325.61C200.22 325.96 199.64 326.39 199.13 326.91C181.85 344.18 43.67 482.38 26.39 499.65C3.1 523.01 3.1 560.82 26.39 584.18C29.34 587.13 52.93 610.71 55.88 613.66C79.23 636.96 117.04 636.96 140.39 613.66C157.67 596.39 295.85 458.19 313.13 440.92C313.64 440.4 314.08 439.82 314.43 439.18C315.48 437.25 320.76 427.61 330.26 410.24C458.17 538.16 529.23 609.22 543.44 623.43C565.53 645.52 601.34 645.52 623.43 623.43C645.52 601.34 645.52 565.52 623.43 543.43C592.65 512.64 515.68 435.67 392.53 312.52ZM358.95 355.96C351.47 348.47 291.58 288.58 284.09 281.09C278.93 275.7 279.11 267.14 284.5 261.97C289.73 256.96 297.99 256.96 303.22 261.97C310.7 269.46 370.59 329.35 378.07 336.83C383.34 342.12 383.34 350.67 378.07 355.96C372.79 361.23 364.24 361.23 358.95 355.96ZM519.7 101.2C520.51 100.39 521.12 99.42 521.5 98.35C522.32 96.05 526.4 84.55 533.74 63.85L598.33 26.08L613.94 41.69L576.17 106.29C555.48 113.63 543.98 117.71 541.68 118.52C540.61 118.91 539.63 119.52 538.83 120.32C529.4 129.75 482.26 176.9 397.4 261.77L378.27 242.65C453.7 167.21 500.84 120.06 519.7 101.2ZM355.33 241.34L398.7 284.71L373.15 310.26L329.78 266.89L355.33 241.34ZM210.89 269.23C208.63 266.97 205.21 266.35 202.31 267.68C152.11 290.38 93.11 279.71 54.05 240.86C21.63 208.67 8.26 161.94 18.77 117.47C23.31 122.05 59.7 158.69 64.25 163.27C66.01 165.04 68.54 165.84 71.01 165.41C78.55 164.07 138.9 153.41 146.44 152.08C149.54 151.53 151.99 149.14 152.61 146.05C154.07 138.75 165.78 80.36 167.24 73.06C167.75 70.55 166.96 67.96 165.15 66.15C160.41 61.4 122.44 23.43 117.69 18.68C188.82 2.26 259.79 46.61 276.21 117.74C282.75 146.09 279.76 175.81 267.7 202.28C266.38 205.18 266.99 208.61 269.25 210.86C272.58 214.19 299.2 240.81 302.52 244.14C289.46 239.88 275.21 245.46 268.52 257.46C267.16 256.1 256.3 245.24 254.94 243.88C251.95 240.89 247.11 240.89 244.12 243.88C241.13 246.86 241.13 251.71 244.12 254.7C244.12 254.7 244.12 254.7 244.12 254.7C246.23 256.8 263.09 273.67 265.2 275.77C265.83 280.1 267.45 284.22 269.91 287.83C268.17 288.78 259.47 293.55 243.79 302.13C226.24 284.58 215.28 273.61 210.89 269.23ZM301.54 430.88C198.37 534.06 141.04 591.39 129.58 602.85C112.2 620.19 84.07 620.19 66.69 602.85C63.74 599.91 40.16 576.32 37.21 573.37C19.87 555.99 19.87 527.85 37.21 510.47C48.68 499.01 106 441.68 209.17 338.5L280.71 299.35L340.69 359.33L301.54 430.88ZM554.26 612.62C554.26 612.62 554.26 612.62 554.26 612.62C539.83 598.2 467.72 526.08 337.93 396.27C346.5 380.6 351.27 371.89 352.22 370.15C355.87 372.65 360.04 374.28 364.41 374.91C364.54 375.06 364.65 375.23 364.8 375.38C381.59 392.18 515.96 526.55 532.75 543.35C535.77 546.31 540.61 546.27 543.57 543.26C546.5 540.29 546.5 535.51 543.57 532.53C527.47 516.43 398.67 387.62 382.57 371.52C394.59 364.85 400.18 350.58 395.9 337.52C417.57 359.19 590.94 532.58 612.61 554.25C628.73 570.36 628.73 596.49 612.61 612.61C612.61 612.61 612.61 612.61 612.61 612.61C596.5 628.73 570.37 628.74 554.26 612.62Z" id="dwfdaiAuu"></path><path d="M252.84 164.66C254.05 149.01 252.14 133.27 247.22 118.36C245.89 114.35 241.56 112.18 237.55 113.5C233.54 114.83 231.37 119.16 232.69 123.17C232.69 123.17 232.69 123.17 232.69 123.17C236.98 136.15 238.65 149.85 237.59 163.48C237.26 167.69 240.41 171.37 244.63 171.7C244.83 171.71 245.03 171.72 245.22 171.72C249.22 171.71 252.53 168.64 252.84 164.66Z" id="a2KNl7QpZi"></path><path d="M227.02 81.39C224.37 78.11 219.55 77.6 216.26 80.25C212.98 82.91 212.47 87.73 215.13 91.01C215.13 91.01 215.13 91.01 215.13 91.01C217.38 93.79 219.48 96.69 221.43 99.69C223.69 103.26 228.42 104.32 231.99 102.05C235.55 99.79 236.61 95.06 234.35 91.5C234.32 91.45 234.29 91.41 234.26 91.37C232.02 87.92 229.61 84.59 227.02 81.39Z" id="b25YWWh1mu"></path><path d="M107.76 554.42C104.8 557.43 104.84 562.28 107.85 565.24C110.82 568.17 115.6 568.17 118.58 565.24C130.8 553.02 228.55 455.26 240.77 443.04C243.76 440.05 243.76 435.21 240.77 432.22C237.79 429.23 232.95 429.23 229.96 432.22C229.96 432.22 119.98 542.2 107.76 554.42Z" id="d37hRehZjv"></path><path d="M197.02 399.28C184.8 411.5 87.04 509.26 74.82 521.48C71.86 524.49 71.9 529.34 74.91 532.3C77.89 535.23 82.66 535.23 85.64 532.3C97.86 520.08 195.62 422.31 207.84 410.09C210.82 407.11 210.82 402.26 207.84 399.28C207.84 399.28 207.84 399.28 207.84 399.28C204.85 396.29 200.01 396.29 197.02 399.28Z" id="b2pm1SO7dc"></path></defs><g><g><g><use xlink:href="#dwfdaiAuu" opacity="1" fill="#ffffff" fill-opacity="1"></use><g><use xlink:href="#dwfdaiAuu" opacity="1" fill-opacity="0" stroke="#000000" stroke-width="1" stroke-opacity="0"></use></g></g><g><use xlink:href="#a2KNl7QpZi" opacity="1" fill="#ffffff" fill-opacity="1"></use><g><use xlink:href="#a2KNl7QpZi" opacity="1" fill-opacity="0" stroke="#000000" stroke-width="1" stroke-opacity="0"></use></g></g><g><use xlink:href="#b25YWWh1mu" opacity="1" fill="#ffffff" fill-opacity="1"></use><g><use xlink:href="#b25YWWh1mu" opacity="1" fill-opacity="0" stroke="#000000" stroke-width="1" stroke-opacity="0"></use></g></g><g><use xlink:href="#d37hRehZjv" opacity="1" fill="#ffffff" fill-opacity="1"></use><g><use xlink:href="#d37hRehZjv" opacity="1" fill-opacity="0" stroke="#000000" stroke-width="1" stroke-opacity="0"></use></g></g><g><use xlink:href="#b2pm1SO7dc" opacity="1" fill="#ffffff" fill-opacity="1"></use><g><use xlink:href="#b2pm1SO7dc" opacity="1" fill-opacity="0" stroke="#000000" stroke-width="1" stroke-opacity="0"></use></g></g></g></g></svg>