<?xml version="1.0" encoding="UTF-8" standalone="no"?>
<!DOCTYPE svg PUBLIC "-//W3C//DTD SVG 1.1//EN" "http://www.w3.org/Graphics/SVG/1.1/DTD/svg11.dtd">
<svg version="1.1" xmlns="http://www.w3.org/2000/svg" xmlns:xlink="http://www.w3.org/1999/xlink" preserveAspectRatio="xMidYMid meet" viewBox="0 0 640 640" width="50" height="50"><defs><path d="M169.02 0C74.24 0 0 74.24 0 169.02C0 199.22 0 440.78 0 470.98C0 565.76 74.24 640 169.02 640C199.22 640 440.78 640 470.98 640C565.76 640 640 565.76 640 470.98C640 440.78 640 199.22 640 169.02C640 74.24 565.74 0 470.98 0C410.59 0 199.22 0 169.02 0ZM470.98 598.71C440.78 598.71 199.22 598.71 169.02 598.71C97.4 598.71 41.29 542.6 41.29 470.98C41.29 440.78 41.29 199.22 41.29 169.02C41.29 97.4 97.4 41.29 169.02 41.29C199.22 41.29 440.78 41.29 470.98 41.29C542.62 41.29 598.71 97.4 598.71 169.02C598.71 189.15 598.71 289.8 598.71 470.98C561.3 556.13 518.72 598.71 470.98 598.71Z" id="f7IQ4Qau5s"></path><path d="M498.68 162.27C491.62 166.42 475.97 168.46 463.42 170.12C460.82 170.47 458.26 170.8 455.78 171.15C438.21 156.57 415.77 148.4 392.63 148.4C340.5 148.4 297.72 188.74 294.69 239.48C247.41 231.51 204.12 206.86 173.44 169.83C168.88 164.29 161.8 161.59 154.65 162.52C147.55 163.51 141.48 168.11 138.61 174.68C137.29 177.69 125.77 206.04 125.77 276.15C125.77 336.87 173.69 381.48 206.55 404.95C184.07 415.17 158.16 418.93 133.55 416.21C123.93 415.17 114.93 420.83 111.75 429.89C108.57 438.98 112.08 449.05 120.22 454.19C159.03 478.68 203.89 491.62 249.97 491.62C397.96 491.62 487.51 375.37 490.84 260.75C495.09 254.58 503.21 242.56 516.91 221.48C522.41 213 527.01 194.7 529.26 184.57C531.06 176.56 527.9 168.24 521.27 163.41C514.64 158.55 505.77 158.14 498.68 162.27ZM449.67 254.08C449.67 335.57 387.72 450.33 249.99 450.33C237.54 450.33 225.2 449.2 213.1 446.97C229.24 440.86 244.5 432.33 258.52 421.53C264.13 417.22 267.13 410.28 266.47 403.24C265.81 396.2 261.57 389.97 255.24 386.77C254.35 386.31 167.08 340.42 167.08 276.17C167.08 254.64 168.24 237.71 169.77 224.83C210.29 259.72 261.86 280.59 316.14 283.27C316.55 283.29 316.99 283.31 317.38 283.29C329.39 282.94 338.23 274.13 338.23 262.65C338.23 259.8 337.65 257.09 336.6 254.62C336.08 251.52 335.81 248.4 335.81 245.29C335.81 214.63 361.29 189.69 392.63 189.69C408.36 189.69 423.49 196.13 434.17 207.34C439.04 212.42 446.16 214.71 453.04 213.37C457.72 212.48 463.13 211.78 468.81 211.03C470.83 210.77 472.88 210.5 474.96 210.21C459.46 233.83 453.86 241.61 453.59 241.98C451.06 245.49 449.67 249.74 449.67 254.08Z" id="b3noPZEah4"></path></defs><g><g><g><use xlink:href="#f7IQ4Qau5s" opacity="1" fill="#333333" fill-opacity="1"></use><g><use xlink:href="#f7IQ4Qau5s" opacity="1" fill-opacity="0" stroke="#000000" stroke-width="1" stroke-opacity="0"></use></g></g><g><use xlink:href="#b3noPZEah4" opacity="1" fill="#333333" fill-opacity="1"></use><g><use xlink:href="#b3noPZEah4" opacity="1" fill-opacity="0" stroke="#000000" stroke-width="1" stroke-opacity="0"></use></g></g></g></g></svg>