<?xml version="1.0" encoding="UTF-8" standalone="no"?>
<!DOCTYPE svg PUBLIC "-//W3C//DTD SVG 1.1//EN" "http://www.w3.org/Graphics/SVG/1.1/DTD/svg11.dtd">
<svg version="1.1" xmlns="http://www.w3.org/2000/svg" xmlns:xlink="http://www.w3.org/1999/xlink" preserveAspectRatio="xMidYMid meet" viewBox="0 0 640 640" width="150" height="150"><defs><path d="M502.52 280.31C508.39 279.29 549.03 280.31 558.39 280.31C567.45 279.71 576.56 280.02 585.55 281.24C625.16 290.52 624.85 346.22 581.95 353.18C575.57 354.2 535.65 353.18 525.98 353.18C516.91 353.73 507.8 353.38 498.82 352.16C477.01 346.37 464.54 325.72 470.96 306.05C471.23 305.23 471.53 304.41 471.86 303.61C476.48 291.21 488.39 282.18 502.73 280.22C502.69 280.23 502.56 280.29 502.52 280.31ZM616.93 270.75C609.05 264.72 599.65 260.51 589.56 258.49C576.53 257 563.38 256.6 550.26 257.29C546.15 257.29 513.22 257.29 509.11 257.29C497.66 257.05 486.37 259.68 476.49 264.9C444.76 282.26 434.64 319.54 453.88 348.16C457.49 353.52 461.99 358.35 467.23 362.46C487.81 378.34 507.77 376.02 533.8 376.02C537.91 376.02 570.84 376.02 574.95 376.02C608.34 376.43 636.46 353.57 639.46 323.57C642.29 303.66 633.82 283.81 616.93 270.75ZM262.28 288.57C265.52 292.86 291.45 327.17 294.69 331.46C300.66 339.91 308.89 352.07 315.88 360.14C323.67 370.73 336.99 376.92 351.07 376.48C364.53 375.44 376.57 368.5 383.28 357.91C390.27 348.63 397.37 339.35 404.78 329.32C408.56 324.26 438.85 283.79 442.64 278.73C447.19 273.42 446.11 265.78 440.22 261.67C437.2 259.57 433.33 258.72 429.57 259.33C423.43 261.33 418.5 265.58 415.99 271.03C413.84 273.9 396.64 296.93 394.49 299.8C387.39 309.09 380.19 319.02 372.99 328.39C369.28 333.22 365.99 337.68 362.7 342.69C359.41 347.7 354.88 353.83 346.75 351.97C340.92 349.4 336.24 345.11 333.48 339.81C332.45 338.38 324.22 326.95 323.19 325.52C315.99 316.23 309.09 306.95 301.58 296.93C294.07 286.9 287.59 278.36 280.08 268.33C277.62 262.23 270.88 258.41 263.72 259.05C256.32 259.81 251.01 265.84 251.85 272.51C251.89 272.79 251.93 273.07 251.99 273.35C254.6 278.84 258.07 283.96 262.28 288.57ZM10.52 288.29C14.83 294.01 49.31 339.76 53.62 345.47C63.91 359.96 74.2 377.22 99.2 376.48C121.84 375.74 131.2 358.66 142.72 343.25C145.97 338.96 171.89 304.65 175.13 300.36C178.53 295.72 182.23 291.08 185.94 286.06C190.81 281.64 193.74 275.77 194.17 269.54C193.14 262.89 186.33 258.25 178.96 259.18C178.81 259.19 178.67 259.21 178.53 259.24C172.28 261.02 167.26 265.25 164.85 270.75C157.33 280.68 150.65 289.41 143.24 299.8C135.83 310.2 129.04 318.37 121.63 327.65C117.83 332.57 114.64 336.93 111.34 341.95C108.86 347.81 102.66 351.71 95.71 351.79C89.64 349.42 84.79 345.08 82.12 339.63C64.32 316.7 45.81 291.54 28.21 268.06C25.7 262.03 19.07 258.24 11.96 258.77C4.56 259.53 -0.75 265.56 0.09 272.23C0.12 272.51 0.17 272.79 0.23 273.07C2.73 278.61 6.2 283.75 10.52 288.29ZM220.4 259.33C207.24 261.84 209.4 271.95 209.4 284.58C209.4 291.67 209.4 348.41 209.4 355.5C208.45 360.83 209.27 366.28 211.76 371.19C215.96 376.74 224.34 378.16 230.49 374.38C232.98 372.85 234.82 370.62 235.73 368.03C236.97 364.32 236.35 321.62 236.35 315.4C236.35 311.84 236.35 283.4 236.35 279.85C237.27 274.56 236.49 269.14 234.09 264.25C231.15 260.25 225.83 258.23 220.61 259.14C220.57 259.18 220.45 259.29 220.4 259.33ZM216.29 220.62C215.26 221.49 207.03 228.47 206 229.35C199.83 234.82 204.97 237.33 212.89 244.11C213.38 244.54 217.25 248.03 217.73 248.47C224.01 254.13 226.37 249.95 234.6 242.53C246.13 232.6 245.72 234.82 227.92 218.76C226.58 216.6 223.76 215.55 221.12 216.26C219.2 217.4 217.55 218.88 216.29 220.62Z" id="ang8uXYIu"></path></defs><g><g><g><use xlink:href="#ang8uXYIu" opacity="1" fill="#333333" fill-opacity="1"></use><g><use xlink:href="#ang8uXYIu" opacity="1" fill-opacity="0" stroke="#000000" stroke-width="1" stroke-opacity="0"></use></g></g></g></g></svg>