<?xml version="1.0" encoding="UTF-8" standalone="no"?>
<!DOCTYPE svg PUBLIC "-//W3C//DTD SVG 1.1//EN" "http://www.w3.org/Graphics/SVG/1.1/DTD/svg11.dtd">
<svg version="1.1" xmlns="http://www.w3.org/2000/svg" xmlns:xlink="http://www.w3.org/1999/xlink" preserveAspectRatio="xMidYMid meet" viewBox="0 0 640 640" width="50" height="50"><defs><path d="M277.12 213.88C268.99 209.43 259.38 209.6 251.41 214.32C243.44 219.04 238.68 227.39 238.68 236.66C238.68 252 238.68 374.72 238.68 390.06C238.68 399.28 243.41 407.62 251.33 412.35C255.46 414.82 260.05 416.06 264.64 416.06C268.85 416.06 273.07 415.02 276.95 412.93C291.09 405.33 404.21 344.5 418.35 336.9C426.74 332.38 431.98 323.66 432.02 314.12C432.05 304.59 426.88 295.82 418.51 291.24C390.23 275.77 291.26 221.61 277.12 213.88ZM276.19 370.76L276.19 256.11L381.86 313.94L276.19 370.76Z" id="c5arbpbsy"></path><path d="M635.26 191.62C634.72 186.47 629.32 140.65 607.05 117.34C581.3 89.93 552.11 86.6 538.07 85C536.91 84.87 535.85 84.75 534.9 84.62C534.78 84.61 533.89 84.51 533.78 84.5C449.17 78.35 321.39 77.51 320.11 77.51C320.1 77.51 320.07 77.5 320 77.5C319.93 77.5 319.89 77.51 319.89 77.51C318.61 77.51 190.83 78.35 105.46 84.5C105.35 84.51 104.44 84.61 104.33 84.62C103.42 84.74 102.42 84.85 101.33 84.98C87.46 86.58 58.58 89.92 32.76 118.32C11.54 141.38 5.41 186.22 4.78 191.26C4.77 191.32 4.71 191.84 4.71 191.91C4.52 194.05 0 245.08 0 296.31C0 301.1 0 339.41 0 344.2C0 395.43 4.52 446.46 4.71 448.61C4.71 448.65 4.74 448.9 4.74 448.94C5.28 454 10.67 498.98 32.85 522.3C57.06 548.79 87.67 552.3 104.13 554.18C106.73 554.48 108.97 554.74 110.5 555C110.65 555.02 111.83 555.19 111.98 555.21C160.83 559.86 314 562.15 320.5 562.24C320.51 562.24 320.57 562.24 320.69 562.25C320.81 562.24 320.87 562.24 320.89 562.24C322.17 562.24 449.94 561.4 534.55 555.24C534.66 555.23 535.56 555.14 535.67 555.13C536.74 554.98 537.94 554.86 539.26 554.72C553.05 553.26 581.78 550.21 607.24 522.2C628.45 499.14 634.59 454.3 635.22 449.26C635.22 449.2 635.28 448.67 635.29 448.61C635.48 446.46 640 395.43 640 344.2C640 339.41 640 301.1 640 296.31C640 245.08 635.48 194.06 635.29 191.91C635.29 191.91 635.26 191.65 635.26 191.62ZM602.49 344.2C602.49 391.62 598.35 440.45 597.96 444.94C596.37 457.28 589.9 485.65 579.56 496.89C563.63 514.42 547.25 516.16 535.3 517.43C533.86 517.58 532.52 517.72 531.31 517.88C449.47 523.79 326.52 524.7 320.85 524.74C314.5 524.64 163.57 522.33 116.21 517.93C113.78 517.54 111.16 517.24 108.4 516.92C94.38 515.32 75.19 513.12 60.43 496.89C60.4 496.85 60.12 496.55 60.09 496.52C49.93 485.94 43.65 459.41 42.05 445.08C41.75 441.69 37.5 392.28 37.5 344.2C37.5 339.41 37.5 301.1 37.5 296.31C37.5 248.95 41.64 200.17 42.04 195.6C43.94 181.05 50.53 154.4 60.43 143.63C76.86 125.56 94.18 123.56 105.63 122.24C106.73 122.11 107.75 121.99 108.69 121.87C191.72 115.92 315.56 115.04 320 115.01C324.44 115.03 448.24 115.92 530.53 121.87C531.54 122 532.64 122.12 533.83 122.26C545.61 123.6 563.42 125.64 579.76 143.07C579.77 143.08 579.89 143.21 579.91 143.23C590.07 153.81 596.35 180.8 597.95 195.42C598.23 198.61 602.49 248.13 602.49 296.31C602.49 305.89 602.49 334.63 602.49 344.2Z" id="esJzHH2A7"></path></defs><g><g><g><use xlink:href="#c5arbpbsy" opacity="1" fill="#333333" fill-opacity="1"></use><g><use xlink:href="#c5arbpbsy" opacity="1" fill-opacity="0" stroke="#000000" stroke-width="1" stroke-opacity="0"></use></g></g><g><use xlink:href="#esJzHH2A7" opacity="1" fill="#333333" fill-opacity="1"></use><g><use xlink:href="#esJzHH2A7" opacity="1" fill-opacity="0" stroke="#000000" stroke-width="1" stroke-opacity="0"></use></g></g></g></g></svg>