<?xml version="1.0" encoding="UTF-8" standalone="no"?>
<!DOCTYPE svg PUBLIC "-//W3C//DTD SVG 1.1//EN" "http://www.w3.org/Graphics/SVG/1.1/DTD/svg11.dtd">
<svg version="1.1" xmlns="http://www.w3.org/2000/svg" xmlns:xlink="http://www.w3.org/1999/xlink" preserveAspectRatio="xMidYMid meet" viewBox="0 0 640 640" width="75" height="75"><defs><path d="M182.5 0C156.65 0 135.63 21.03 135.63 46.88C135.63 101.5 135.63 538.5 135.63 593.13C135.63 618.97 156.65 640 182.5 640C210 640 430 640 457.5 640C483.35 640 504.38 618.97 504.38 593.13C504.38 538.5 504.38 101.5 504.38 46.88C504.38 21.03 483.35 0 457.5 0C402.5 0 210 0 182.5 0ZM220 508.75C214.82 508.75 210.63 512.95 210.63 518.13C210.63 523.3 214.82 527.5 220 527.5C237.71 527.5 326.25 527.5 485.63 527.5C485.63 566.88 485.63 588.75 485.63 593.13C485.63 608.63 473.01 621.25 457.5 621.25C430 621.25 210 621.25 182.5 621.25C166.99 621.25 154.38 608.63 154.38 593.13C154.38 588.75 154.38 566.88 154.38 527.5C171.25 527.5 180.63 527.5 182.5 527.5C187.68 527.5 191.88 523.3 191.88 518.13C191.88 512.95 187.68 508.75 182.5 508.75C180.63 508.75 171.25 508.75 154.38 508.75L154.38 93.75L485.63 93.75L485.63 508.75C326.25 508.75 237.71 508.75 220 508.75ZM154.38 75C154.38 58.13 154.38 48.75 154.38 46.88C154.38 31.37 166.99 18.75 182.5 18.75C210 18.75 430 18.75 457.5 18.75C473.01 18.75 485.63 31.37 485.63 46.88C485.63 48.75 485.63 58.13 485.63 75L154.38 75Z" id="c17qzlVURN"></path><path d="M320 37.5C314.82 37.5 310.63 41.7 310.63 46.88C310.63 52.05 314.82 56.25 320 56.25C323.75 56.25 353.75 56.25 357.5 56.25C362.68 56.25 366.88 52.05 366.88 46.88C366.88 41.7 362.68 37.5 357.5 37.5C350 37.5 323.75 37.5 320 37.5Z" id="gKQ1BIQKg"></path><path d="M291.88 574.38C291.88 589.88 304.49 602.5 320 602.5C335.51 602.5 348.13 589.88 348.13 574.38C348.13 558.87 335.51 546.25 320 546.25C304.49 546.25 291.88 558.87 291.88 574.38ZM310.63 574.38C310.63 569.2 314.83 565 320 565C325.17 565 329.38 569.2 329.38 574.38C329.38 579.55 325.17 583.75 320 583.75C314.83 583.75 310.63 579.55 310.63 574.38Z" id="cQxIGKaSi"></path><path d="M282.5 37.5C277.32 37.5 273.13 41.7 273.13 46.88C273.13 52.05 277.32 56.25 282.5 56.25C287.68 56.25 291.88 52.05 291.88 46.88C291.88 41.7 287.68 37.5 282.5 37.5Z" id="k4Mmn4HrTY"></path></defs><g><g><g><use xlink:href="#c17qzlVURN" opacity="1" fill="#ffffff" fill-opacity="1"></use><g><use xlink:href="#c17qzlVURN" opacity="1" fill-opacity="0" stroke="#000000" stroke-width="1" stroke-opacity="0"></use></g></g><g><use xlink:href="#gKQ1BIQKg" opacity="1" fill="#ffffff" fill-opacity="1"></use><g><use xlink:href="#gKQ1BIQKg" opacity="1" fill-opacity="0" stroke="#000000" stroke-width="1" stroke-opacity="0"></use></g></g><g><use xlink:href="#cQxIGKaSi" opacity="1" fill="#ffffff" fill-opacity="1"></use><g><use xlink:href="#cQxIGKaSi" opacity="1" fill-opacity="0" stroke="#000000" stroke-width="1" stroke-opacity="0"></use></g></g><g><use xlink:href="#k4Mmn4HrTY" opacity="1" fill="#ffffff" fill-opacity="1"></use><g><use xlink:href="#k4Mmn4HrTY" opacity="1" fill-opacity="0" stroke="#000000" stroke-width="1" stroke-opacity="0"></use></g></g></g></g></svg>